<?xml version="1.0" encoding="utf-8"?>
<!-- Generator: Adobe Illustrator 24.1.2, SVG Export Plug-In . SVG Version: 6.00 Build 0)  -->
<svg version="1.1" id="Layer_2" xmlns="http://www.w3.org/2000/svg" xmlns:xlink="http://www.w3.org/1999/xlink" x="0px" y="0px"
	 viewBox="0 0 500 500" style="enable-background:new 0 0 500 500;" xml:space="preserve">
<style type="text/css">
	.st0{fill:#989899;}
</style>
<path class="st0" d="M86.11,439C32.14,391.61,1.19,323.27,1.18,251.45C1.18,113.92,113.07,2,250.59,2S500,113.92,500,251.45
	c-0.04,71.25-30.51,139.09-83.75,186.44l-12.5-14.06c49.22-43.78,77.39-106.51,77.43-172.38c0-127.15-103.44-230.59-230.59-230.59
	S20,124.3,20,251.45c0.02,66.4,28.63,129.57,78.53,173.37L86.11,439z"/>
<path class="st0" d="M154.09,481.52c-1.35,0-2.69-0.29-3.92-0.85C74.45,446.08,21.26,375.65,8.72,293.35
	c-0.55-3.69,1.13-7.36,4.28-9.35c10.77-6.85,22.55-11.97,34.91-15.15c10.06-2.62,20.41-3.97,30.81-4
	c67.26,0,122.79,104.34,122.79,122.79c-0.01,21.55-5.72,42.71-16.53,61.34c-6.55,11.3-14.85,21.5-24.6,30.2
	C158.64,480.71,156.4,481.54,154.09,481.52z M28.36,296.71C41.25,368,87.26,428.93,152.3,460.84c6.35-6.38,11.85-13.56,16.36-21.35
	c9.16-15.77,13.99-33.67,14-51.9c-1.43-12.69-49-104-104-104c-8.81,0.05-17.58,1.21-26.1,3.46
	C44.12,289.23,35.98,292.48,28.36,296.71z"/>
<path class="st0" d="M350.08,481.52c-2.31,0-4.55-0.85-6.27-2.39c-26.1-23.28-41.05-56.57-41.12-91.54
	c0-18.46,55.53-122.79,122.79-122.79c10.4,0.03,20.75,1.38,30.81,4c12.37,3.21,24.15,8.34,34.93,15.2c3.16,2,4.83,5.69,4.26,9.38
	C482.89,375.66,429.7,446.06,354,480.66C352.77,481.22,351.43,481.52,350.08,481.52z M425.48,283.62c-55,0-102.54,91.28-104,104.25
	c0.06,18.13,4.88,35.93,14,51.61c4.51,7.8,10.01,14.97,16.36,21.36c65.05-31.91,111.08-92.82,124-164.12
	C460.4,288.25,443.09,283.75,425.48,283.62L425.48,283.62z"/>
<path class="st0" d="M115.3,115.38l-13.46-13.16c80.18-82.04,211.68-83.56,293.73-3.38c0.57,0.56,1.15,1.13,1.71,1.69L384,113.84
	c-73.76-73.78-193.37-73.79-267.14-0.03C116.33,114.33,115.82,114.85,115.3,115.38z"/>
<path class="st0" d="M175.78,427.77c-69.71-119.2-128-140.91-128.63-141.11l6.09-17.81C55.86,269.73,118.16,292,192,418.26
	L175.78,427.77z"/>
<path class="st0" d="M329.32,427.77l-16.25-9.5C386.94,292,449.24,269.73,451.86,268.85l6,17.83l-3-8.92l3.08,8.9
	C457.37,286.86,399,308.57,329.32,427.77z"/>
<path class="st0" d="M270.51,260.39h-41.68V169l7.06-11.1l-4.36-32.67l5.65-3.07v-0.65c0-6.75,8.67-10.27,12.36-10.29l0,0
	c3.72,0.27,7.23,1.81,9.94,4.36c1.66,1.52,2.62,3.66,2.66,5.91v0.66l5.65,3.05l-4.36,32.69l7.06,11.1v91.4H270.51z M238.77,250.44
	h21.79v-78.55l-7.45-11.71L257,130.7l-5.54-3l0.67-5.34c-0.8-0.56-1.69-0.97-2.63-1.2c-0.86,0.28-1.67,0.7-2.41,1.22v1.3l0.6,3.51
	l-5.44,3.5l3.93,29.47l-7.45,11.71v78.55L238.77,250.44z"/>
<rect x="235.3" y="183.08" class="st0" width="28.75" height="9.95"/>
<rect x="235.3" y="202.9" class="st0" width="28.75" height="9.95"/>
<path class="st0" d="M249.68,331.69c-9.23-0.01-18.44-0.98-27.47-2.89l-3.94-0.84v-66.74c0.04-5.64,4.6-10.19,10.24-10.22h42.31
	c5.66,0.01,10.25,4.6,10.26,10.26V328l-3.94,0.84C268.11,330.74,258.91,331.7,249.68,331.69z M228.23,319.84
	c14.19,2.53,28.71,2.53,42.9,0v-58.63l-42.6-0.31L228.23,319.84z"/>
<rect x="242.65" y="327.4" class="st0" width="17.91" height="167.22"/>
</svg>
