<?xml version="1.0" encoding="utf-8"?>
<!-- Generator: Adobe Illustrator 24.1.2, SVG Export Plug-In . SVG Version: 6.00 Build 0)  -->
<svg version="1.1" id="Layer_2" xmlns="http://www.w3.org/2000/svg" xmlns:xlink="http://www.w3.org/1999/xlink" x="0px" y="0px"
	 viewBox="0 0 500 500" style="enable-background:new 0 0 500 500;" xml:space="preserve">
<style type="text/css">
	.st0{fill:#989899;}
</style>
<path class="st0" d="M85.13,446.91C31.05,399.43,0.03,330.96,0,259C0,121.11,112.15,9,250,9s250,112.11,250,250
	c-0.04,71.42-30.59,139.42-83.95,186.88l-12.53-14.1c49.33-43.89,77.57-106.75,77.61-172.78c0-127.49-103.68-231.17-231.13-231.17
	S18.87,131.51,18.87,259c0.03,66.54,28.71,129.84,78.71,173.74L85.13,446.91z"/>
<path class="st0" d="M153.27,489.58c-1.36,0-2.7-0.3-3.93-0.86C73.45,454.06,20.14,383.48,7.55,301c-0.57-3.7,1.1-7.38,4.26-9.39
	c10.8-6.87,22.61-11.99,35-15.18c10.08-2.64,20.46-4,30.88-4.05c67.42,0,123.08,104.58,123.08,123.08
	c-0.01,21.6-5.72,42.81-16.56,61.49c-6.56,11.33-14.88,21.55-24.65,30.27C157.83,488.75,155.59,489.59,153.27,489.58z M27.27,304.34
	c12.92,71.45,59.02,132.52,124.21,164.51c6.36-6.4,11.88-13.59,16.4-21.4c9.16-15.8,13.99-33.74,14-52
	c-1.42-12.75-49.07-104.25-104.2-104.25c-8.83,0.04-17.62,1.21-26.16,3.46c-8.47,2.18-16.63,5.43-24.28,9.67L27.27,304.34z"/>
<path class="st0" d="M349.72,489.58c-2.32,0-4.55-0.85-6.28-2.4c-26.16-23.34-41.15-56.7-41.22-91.76
	c0-18.5,55.66-123.08,123.08-123.08c10.42,0.05,20.8,1.41,30.88,4.05c12.39,3.2,24.2,8.32,35,15.17c3.17,2.01,4.84,5.7,4.27,9.41
	c-12.61,82.48-65.92,153.06-141.8,187.75C352.42,489.28,351.08,489.58,349.72,489.58z M425.3,291.2
	c-55.13,0-102.78,91.49-104.23,104.5c0.05,18.17,4.87,36.01,14,51.73c4.52,7.81,10.03,15.01,16.4,21.41
	c65.19-31.99,111.31-93.04,124.26-164.5C460.27,295.85,442.94,291.34,425.3,291.2z"/>
<path class="st0" d="M114.39,122.57l-13.49-13.19c80.38-82.23,212.2-83.73,294.43-3.35c0.56,0.55,1.11,1.09,1.67,1.65L383.7,121
	c-73.94-73.94-193.83-73.94-267.77,0.01C115.42,121.53,114.9,122.05,114.39,122.57z"/>
<path class="st0" d="M175,435.7C105.13,316.22,46.65,294.46,46.07,294.25l6.11-17.85c2.63,0.88,65.07,23.19,139.11,149.77L175,435.7
	z"/>
<path class="st0" d="M328.92,435.7l-16.29-9.53c74-126.58,136.49-148.89,139.11-149.77l6,17.87l-3-8.94l3.09,8.92
	C457.27,294.46,398.8,316.22,328.92,435.7z"/>
</svg>
