<?xml version="1.0" encoding="utf-8"?>
<!-- Generator: Adobe Illustrator 20.1.0, SVG Export Plug-In . SVG Version: 6.00 Build 0)  -->
<svg version="1.1" id="Layer_1" xmlns="http://www.w3.org/2000/svg" xmlns:xlink="http://www.w3.org/1999/xlink" x="0px" y="0px"
	 viewBox="0 0 446 342" style="enable-background:new 0 0 446 342;" xml:space="preserve">
<style type="text/css">
	.st0{fill:none;stroke:#A6A8AB;stroke-width:1.1075;stroke-linecap:round;stroke-linejoin:round;}
	.st1{fill:none;stroke:#A6A8AB;stroke-width:1.7719;stroke-linejoin:round;}
	.st2{fill:none;stroke:#A7A9AC;stroke-width:1.7719;stroke-linejoin:round;}
	.st3{fill:none;stroke:#A6A8AB;stroke-width:1.7748;}
	.st4{fill:none;stroke:#A6A8AB;stroke-width:0.886;stroke-linejoin:round;stroke-dasharray:0.886,0.886,0.886,0.886;}
	.st5{fill:none;stroke:#A6A8AB;stroke-width:0.8751;stroke-linejoin:round;stroke-dasharray:0.886,0.886,0.886,0.886;}
	.st6{fill:none;stroke:#A6A8AB;stroke-width:0.8764;stroke-linejoin:round;stroke-dasharray:0.886,0.886,0.886,0.886;}
	.st7{fill:#A7A9AC;}
	.st8{fill:none;stroke:#A6A8AB;stroke-width:1.7208;stroke-linecap:square;stroke-linejoin:round;}
	.st9{fill:#A6A8AB;}
	.st10{fill:#FFFFFF;stroke:#58595B;stroke-width:1.7719;}
	.st11{fill:#58595B;}
	.st12{fill:none;stroke:#A6A8AB;stroke-width:1.7284;stroke-linecap:square;stroke-linejoin:round;}
	.st13{fill:#231F20;stroke:#231F20;stroke-width:1.1075;}
	.st14{fill:none;stroke:#ED174C;stroke-width:1.7719;stroke-linecap:round;stroke-linejoin:round;}
	.st15{fill:none;stroke:#231F20;stroke-width:1.7719;stroke-linecap:round;stroke-linejoin:round;}
	.st16{fill:none;stroke:#58595B;stroke-width:1.7719;stroke-linecap:round;stroke-linejoin:round;}
	.st17{fill:#ED174C;stroke:#ED174C;stroke-width:1.1075;}
</style>
<g id="INSERT_1_">
	<g id="BLOCK_x5F_RECORD_1_">
		<g id="LINE_399_">
			<path class="st0" d="M444.4,27.7"/>
		</g>
		<g id="LINE_400_">
			<path class="st0" d="M444.4,27.7"/>
		</g>
	</g>
</g>
<g id="LINE_47_">
	<line class="st1" x1="70" y1="12.6" x2="70" y2="287.1"/>
</g>
<g id="LINE_46_">
	<line class="st1" x1="62.2" y1="278.3" x2="424.3" y2="278.3"/>
</g>
<g id="LINE_45_">
	<line class="st2" x1="61.1" y1="12.6" x2="424.3" y2="12.6"/>
</g>
<g id="LINE_44_">
	<line class="st3" x1="424.3" y1="11.7" x2="424.3" y2="287.1"/>
</g>
<g id="LINE_43_">
	<line class="st4" x1="380" y1="287.1" x2="380" y2="12.6"/>
</g>
<g id="LINE_41_">
	<line class="st4" x1="424.3" y1="56.9" x2="70" y2="56.9"/>
</g>
<g id="LINE_26_">
	<line class="st1" x1="70" y1="56.9" x2="61.1" y2="56.9"/>
</g>
<g id="LINE_40_">
	<line class="st4" x1="70" y1="101.1" x2="424.3" y2="101.1"/>
</g>
<g id="LINE_24_">
	<line class="st1" x1="61.1" y1="101.1" x2="70" y2="101.1"/>
</g>
<g id="LINE_38_">
	<line class="st4" x1="424.3" y1="145.4" x2="70" y2="145.4"/>
</g>
<g id="LINE_22_">
	<line class="st1" x1="70" y1="145.4" x2="61.1" y2="145.4"/>
</g>
<g id="LINE_37_">
	<line class="st5" x1="70" y1="189.7" x2="424.3" y2="189.7"/>
</g>
<g id="LINE_20_">
	<line class="st1" x1="61.1" y1="189.7" x2="70" y2="189.7"/>
</g>
<g id="LINE_35_">
	<line class="st6" x1="424.3" y1="234" x2="70" y2="234"/>
</g>
<g id="LINE_19_">
	<line class="st1" x1="70" y1="234" x2="62.2" y2="234"/>
</g>
<g id="LINE_34_">
	<line class="st4" x1="114.3" y1="287.1" x2="114.3" y2="12.6"/>
</g>
<g id="LINE_31_">
	<line class="st0" x1="158.6" y1="75.9" x2="158.6" y2="76.4"/>
</g>
<g id="LINE_30_">
	<line class="st1" x1="158.6" y1="12.6" x2="158.6" y2="287.1"/>
</g>
<g id="LINE_29_">
	<line class="st4" x1="202.8" y1="287.1" x2="202.8" y2="12.6"/>
</g>
<g id="LINE_28_">
	<line class="st0" x1="202.8" y1="76.4" x2="202.8" y2="75.9"/>
</g>
<g id="LINE_25_">
	<line class="st0" x1="247.1" y1="75.9" x2="247.1" y2="76.4"/>
</g>
<g id="LINE_23_">
	<line class="st1" x1="247.1" y1="12.6" x2="247.1" y2="287.1"/>
</g>
<g id="LINE_21_">
	<line class="st4" x1="291.4" y1="287.1" x2="291.4" y2="12.6"/>
</g>
<g id="LINE_18_">
	<line class="st1" x1="335.7" y1="12.6" x2="335.7" y2="287.1"/>
</g>
<g>
	<path class="st7" d="M41.7,241.1v-1.6l4.7-5.7c0.5-0.6,0.7-1,0.7-1.6c0-1.1-0.7-1.9-1.8-1.9c-0.9,0-1.8,0.5-1.8,1.9h-1.8
		c0-2.1,1.5-3.5,3.6-3.5c2.1,0,3.5,1.3,3.5,3.4c0,1.1-0.4,1.7-1.2,2.6l-3.8,4.7h5v1.6H41.7z"/>
	<path class="st7" d="M54.3,241.2c-1.9,0-3.5-1.3-3.5-3.5v-5.4c0-2.2,1.6-3.5,3.5-3.5c2,0,3.5,1.3,3.5,3.5v5.4
		C57.9,239.9,56.3,241.2,54.3,241.2z M56.1,232.3c0-1.2-0.7-2-1.8-2c-1.1,0-1.8,0.8-1.8,2v5.3c0,1.2,0.7,2,1.8,2
		c1.1,0,1.8-0.8,1.8-2V232.3z"/>
</g>
<g>
	<path class="st7" d="M70,303.7c-1.9,0-3.5-1.3-3.5-3.5v-5.4c0-2.2,1.6-3.5,3.5-3.5c2,0,3.5,1.3,3.5,3.5v5.4
		C73.5,302.4,71.9,303.7,70,303.7z M71.8,294.8c0-1.2-0.7-2-1.8-2c-1.1,0-1.8,0.8-1.8,2v5.3c0,1.2,0.7,2,1.8,2c1.1,0,1.8-0.8,1.8-2
		V294.8z"/>
</g>
<g>
	<path class="st7" d="M158.3,303.6v-10.3l-2.4,2.1v-1.9l2.4-2.1h1.8v12.2H158.3z"/>
</g>
<g>
	<path class="st7" d="M243.6,303.6v-1.6l4.7-5.7c0.5-0.6,0.7-1,0.7-1.6c0-1.1-0.7-1.9-1.8-1.9c-0.9,0-1.8,0.5-1.8,1.9h-1.8
		c0-2.1,1.5-3.5,3.6-3.5c2.1,0,3.5,1.3,3.5,3.4c0,1.1-0.4,1.7-1.2,2.6l-3.8,4.7h5v1.6H243.6z"/>
</g>
<g>
	<path class="st7" d="M335.6,303.7c-2,0-3.7-1-3.7-3.4h1.8c0.1,1.3,1,1.9,2,1.9c1.1,0,2-0.7,2-2c0-1.2-0.7-2-2-2h-0.3v-1.5h0.3
		c1.3,0,1.9-0.7,1.9-1.9c0-1.2-0.8-1.9-1.8-1.9c-1.1,0-1.8,0.7-1.8,1.8H332c0.1-2.1,1.6-3.3,3.6-3.3c2.1,0,3.6,1.4,3.6,3.4
		c0,1.3-0.6,2.1-1.5,2.6c1,0.5,1.7,1.4,1.7,2.9C339.3,302.5,337.6,303.7,335.6,303.7z"/>
</g>
<g>
	<path class="st7" d="M426.9,301.8v1.8h-1.7v-1.8h-5v-1.6l4.3-8.8h1.9l-4.3,8.8h3v-2.9h1.7v2.9h1.3v1.6H426.9z"/>
</g>
<g>
	<path class="st7" d="M47.8,193.1v1.8h-1.7v-1.8h-5v-1.6l4.3-8.8h1.9l-4.3,8.8h3v-2.9h1.7v2.9h1.3v1.6H47.8z"/>
	<path class="st7" d="M54.3,195.1c-1.9,0-3.5-1.3-3.5-3.5v-5.4c0-2.2,1.6-3.5,3.5-3.5c2,0,3.5,1.3,3.5,3.5v5.4
		C57.9,193.8,56.3,195.1,54.3,195.1z M56.1,186.2c0-1.2-0.7-2-1.8-2c-1.1,0-1.8,0.8-1.8,2v5.3c0,1.2,0.7,2,1.8,2
		c1.1,0,1.8-0.8,1.8-2V186.2z"/>
</g>
<g>
	<path class="st7" d="M45.5,151.3c-2.1,0-3.6-1.4-3.6-3.7c0-1,0.4-1.9,0.9-3l2.8-5.7h1.9l-2.6,5.3c0.3-0.1,0.7-0.2,1.1-0.2
		c1.8,0,3.2,1.4,3.2,3.5C49.1,149.8,47.6,151.3,45.5,151.3z M45.5,145.5c-1.1,0-1.9,0.8-1.9,2.1c0,1.3,0.8,2.1,1.9,2.1
		s1.9-0.8,1.9-2.1C47.4,146.4,46.7,145.5,45.5,145.5z"/>
	<path class="st7" d="M54.3,151.3c-1.9,0-3.5-1.3-3.5-3.5v-5.4c0-2.2,1.6-3.5,3.5-3.5c2,0,3.5,1.3,3.5,3.5v5.4
		C57.9,150,56.3,151.3,54.3,151.3z M56.1,142.4c0-1.2-0.7-2-1.8-2c-1.1,0-1.8,0.8-1.8,2v5.3c0,1.2,0.7,2,1.8,2c1.1,0,1.8-0.8,1.8-2
		V142.4z"/>
</g>
<g>
	<path class="st7" d="M45.2,107.3c-2.1,0-3.8-1.3-3.8-3.6c0-1.5,0.8-2.4,1.7-2.9c-0.8-0.5-1.5-1.3-1.5-2.6c0-2,1.6-3.4,3.6-3.4
		c2,0,3.6,1.3,3.6,3.4c0,1.3-0.7,2.1-1.5,2.6c0.9,0.5,1.7,1.4,1.7,2.9C48.9,105.9,47.3,107.3,45.2,107.3z M45.2,101.6
		c-1.1,0-2,0.9-2,2c0,1.1,0.9,2,2,2c1.1,0,2-0.9,2-2C47.2,102.6,46.3,101.6,45.2,101.6z M45.2,96.4c-1.1,0-1.8,0.8-1.8,1.9
		c0,1.1,0.7,1.9,1.8,1.9c1.1,0,1.8-0.8,1.8-1.9C47,97.2,46.2,96.4,45.2,96.4z"/>
	<path class="st7" d="M54.3,107.3c-1.9,0-3.5-1.3-3.5-3.5v-5.4c0-2.2,1.6-3.5,3.5-3.5c2,0,3.5,1.3,3.5,3.5v5.4
		C57.9,106,56.3,107.3,54.3,107.3z M56.1,98.4c0-1.2-0.7-2-1.8-2c-1.1,0-1.8,0.8-1.8,2v5.3c0,1.2,0.7,2,1.8,2c1.1,0,1.8-0.8,1.8-2
		V98.4z"/>
</g>
<g>
	<path class="st7" d="M37.8,62.1V51.8l-2.4,2.1v-1.9l2.4-2.1h1.8v12.2H37.8z"/>
	<path class="st7" d="M45.5,62.2c-1.9,0-3.5-1.3-3.5-3.5v-5.4c0-2.2,1.6-3.5,3.5-3.5c2,0,3.5,1.3,3.5,3.5v5.4
		C49,60.9,47.5,62.2,45.5,62.2z M47.3,53.3c0-1.2-0.7-2-1.8-2c-1.1,0-1.8,0.8-1.8,2v5.3c0,1.2,0.7,2,1.8,2c1.1,0,1.8-0.8,1.8-2V53.3
		z"/>
	<path class="st7" d="M54.3,62.2c-1.9,0-3.5-1.3-3.5-3.5v-5.4c0-2.2,1.6-3.5,3.5-3.5c2,0,3.5,1.3,3.5,3.5v5.4
		C57.9,60.9,56.3,62.2,54.3,62.2z M56.1,53.3c0-1.2-0.7-2-1.8-2c-1.1,0-1.8,0.8-1.8,2v5.3c0,1.2,0.7,2,1.8,2c1.1,0,1.8-0.8,1.8-2
		V53.3z"/>
</g>
<g>
	<path class="st7" d="M37.8,19.7V9.3l-2.4,2.1V9.5l2.4-2.1h1.8v12.2H37.8z"/>
	<path class="st7" d="M42,19.7v-1.6l4.7-5.7c0.5-0.6,0.7-1,0.7-1.6c0-1.1-0.7-1.9-1.8-1.9c-0.9,0-1.8,0.5-1.8,1.9H42
		c0-2.1,1.5-3.5,3.6-3.5c2.1,0,3.5,1.3,3.5,3.4c0,1.1-0.4,1.7-1.2,2.6l-3.8,4.7h5v1.6H42z"/>
	<path class="st7" d="M54.3,19.8c-1.9,0-3.5-1.3-3.5-3.5v-5.4c0-2.2,1.6-3.5,3.5-3.5c2,0,3.5,1.3,3.5,3.5v5.4
		C57.9,18.4,56.3,19.8,54.3,19.8z M56.1,10.9c0-1.2-0.7-2-1.8-2c-1.1,0-1.8,0.8-1.8,2v5.3c0,1.2,0.7,2,1.8,2c1.1,0,1.8-0.8,1.8-2
		V10.9z"/>
</g>
<g>
	<g>
		<g>
			<line class="st8" x1="158.6" y1="327.3" x2="236.5" y2="327.3"/>
			<g>
				<polygon class="st9" points="230.8,334.3 229.6,333 235.8,327.3 229.6,321.5 230.8,320.2 238.4,327.3 				"/>
			</g>
		</g>
	</g>
	<g>
		<path class="st7" d="M249.2,333.4c-1.6,0-2.4-1.2-2.4-2.4v-5h-1v-1.3h1v-2.5h1.8v2.5h1.7v1.3h-1.7v4.9c0,0.6,0.3,1,1,1h0.7v1.5
			H249.2z"/>
		<path class="st7" d="M257.3,326.7c-0.4-0.4-0.7-0.6-1.3-0.6c-0.9,0-1.7,0.8-1.7,2v5.3h-1.8v-8.7h1.7v0.9c0.4-0.6,1.3-1,2.3-1
			c0.8,0,1.5,0.2,2.1,0.8L257.3,326.7z"/>
		<path class="st7" d="M264.6,333.4v-0.8c-0.6,0.6-1.2,0.9-2.3,0.9c-1.1,0-1.8-0.3-2.3-0.8c-0.4-0.5-0.7-1.1-0.7-1.9
			c0-1.5,1-2.5,3-2.5h2.3v-0.6c0-1.1-0.5-1.6-1.9-1.6c-0.9,0-1.4,0.2-1.9,0.9l-1.1-1.1c0.8-1,1.7-1.3,3.1-1.3c2.4,0,3.6,1,3.6,3v5.8
			H264.6z M264.5,329.5h-2c-1.1,0-1.6,0.4-1.6,1.3c0,0.8,0.5,1.2,1.6,1.2c0.6,0,1.1-0.1,1.6-0.5c0.3-0.3,0.4-0.7,0.4-1.3V329.5z"/>
		<path class="st7" d="M272.3,333.4h-1.4l-3.2-8.7h1.9l2.1,6.1l2-6.1h1.9L272.3,333.4z"/>
		<path class="st7" d="M278.2,329.5c0,1.5,0.8,2.4,2.2,2.4c1,0,1.5-0.3,2.1-0.9l1.1,1.1c-0.9,0.9-1.7,1.4-3.3,1.4
			c-2.2,0-3.9-1.2-3.9-4.5c0-2.8,1.5-4.5,3.7-4.5c2.3,0,3.7,1.7,3.7,4.2v0.7H278.2z M281.9,327.1c-0.3-0.7-0.9-1.1-1.7-1.1
			c-0.8,0-1.4,0.4-1.7,1.1c-0.2,0.4-0.2,0.7-0.2,1.2h3.9C282.1,327.8,282,327.5,281.9,327.1z"/>
		<path class="st7" d="M288.5,333.4c-1.7,0-2.4-1.1-2.4-2.4v-9.8h1.8v9.7c0,0.7,0.2,1,0.9,1h0.8v1.5H288.5z"/>
		<path class="st7" d="M297.5,335c-0.7-0.7-1.1-1.1-1.4-1.6c-0.4-0.6-0.4-1.3-0.4-2v-8.2c0-0.7,0.1-1.4,0.4-2
			c0.3-0.6,0.7-0.9,1.4-1.6l1.2,1.2c-0.4,0.4-0.7,0.7-1,1.1c-0.2,0.3-0.3,0.8-0.3,1.4v8c0,0.6,0.1,1.1,0.3,1.4
			c0.3,0.5,0.6,0.7,1,1.1L297.5,335z"/>
		<path class="st7" d="M311.7,333.4v-5.3c0-1.4-0.8-1.9-1.8-1.9c-0.9,0-1.8,0.6-1.8,1.9v5.4h-1.8v-5.3c0-1.4-0.8-1.9-1.8-1.9
			c-1,0-1.8,0.6-1.8,1.9v5.3h-1.8v-8.7h1.7v0.9c0.6-0.6,1.4-1,2.3-1c1.1,0,1.9,0.4,2.5,1.3c0.7-0.9,1.6-1.3,2.7-1.3
			c0.9,0,1.7,0.3,2.2,0.8c0.7,0.7,0.9,1.5,0.9,2.5v5.6H311.7z"/>
		<path class="st7" d="M326.8,333.4v-5.3c0-1.4-0.8-1.9-1.8-1.9c-0.9,0-1.8,0.6-1.8,1.9v5.4h-1.8v-5.3c0-1.4-0.8-1.9-1.8-1.9
			c-1,0-1.8,0.6-1.8,1.9v5.3h-1.8v-8.7h1.7v0.9c0.6-0.6,1.4-1,2.3-1c1.1,0,1.9,0.4,2.5,1.3c0.7-0.9,1.6-1.3,2.7-1.3
			c0.9,0,1.7,0.3,2.2,0.8c0.7,0.7,0.9,1.5,0.9,2.5v5.6H326.8z"/>
		<path class="st7" d="M333.4,333.4c-0.3,0.6-0.8,1-1.4,1.6l-1.2-1.2c0.4-0.4,0.7-0.7,0.9-1.1c0.2-0.3,0.3-0.8,0.3-1.4v-8
			c0-0.6-0.1-1.1-0.3-1.4c-0.3-0.5-0.5-0.7-0.9-1.1l1.2-1.2c0.6,0.6,1.1,1.1,1.4,1.6c0.4,0.6,0.4,1.3,0.4,2v8.2
			C333.8,332.1,333.8,332.7,333.4,333.4z"/>
	</g>
</g>
<g>
	<rect x="261.5" y="109.4" class="st10" width="148.4" height="25.3"/>
	<g>
		<path class="st11" d="M276.7,125.7c-0.8,0.8-1.8,1.2-3.2,1.2c-1.3,0-2.4-0.4-3.2-1.2c-1.2-1.2-1.2-2.4-1.2-5c0-2.6,0-3.8,1.2-5
			c0.8-0.8,1.8-1.2,3.2-1.2c1.3,0,2.4,0.4,3.2,1.2c1.2,1.2,1.2,2.4,1.2,5C278,123.3,277.9,124.5,276.7,125.7z M275.4,116.9
			c-0.5-0.5-1.1-0.8-1.8-0.8c-0.7,0-1.4,0.3-1.8,0.8c-0.6,0.7-0.7,1.4-0.7,3.8c0,2.4,0.1,3.1,0.7,3.8c0.5,0.5,1.1,0.8,1.8,0.8
			c0.7,0,1.4-0.3,1.8-0.8c0.6-0.6,0.7-1.4,0.7-3.8C276.1,118.3,276,117.6,275.4,116.9z"/>
		<path class="st11" d="M286.3,126.2c-0.5,0.5-1.2,0.8-2.1,0.8c-0.9,0-1.7-0.2-2.3-1v4.4h-1.8v-12.2h1.7v0.9c0.7-0.8,1.4-1,2.3-1
			c0.9,0,1.7,0.3,2.1,0.8c0.8,0.9,1,2.2,1,3.7C287.3,123.9,287.2,125.3,286.3,126.2z M283.7,119.6c-1.6,0-1.8,1.3-1.8,2.9
			s0.2,2.9,1.8,2.9c1.6,0,1.8-1.4,1.8-2.9S285.3,119.6,283.7,119.6z"/>
		<path class="st11" d="M290.6,123c0,1.5,0.8,2.4,2.2,2.4c1,0,1.5-0.3,2.1-0.9l1.1,1.1c-0.9,0.9-1.7,1.4-3.3,1.4
			c-2.2,0-3.9-1.2-3.9-4.5c0-2.8,1.5-4.5,3.7-4.5c2.3,0,3.7,1.7,3.7,4.2v0.7H290.6z M294.3,120.6c-0.3-0.7-0.9-1.1-1.7-1.1
			c-0.8,0-1.4,0.4-1.7,1.1c-0.2,0.4-0.2,0.7-0.2,1.2h3.9C294.5,121.3,294.5,121,294.3,120.6z"/>
		<path class="st11" d="M303,120.2c-0.4-0.4-0.7-0.6-1.3-0.6c-0.9,0-1.7,0.8-1.7,2v5.3h-1.8v-8.7h1.7v0.9c0.4-0.6,1.3-1.1,2.3-1.1
			c0.8,0,1.5,0.2,2.1,0.8L303,120.2z"/>
		<path class="st11" d="M310,126.9v-0.8c-0.6,0.6-1.2,0.9-2.3,0.9c-1.1,0-1.8-0.3-2.3-0.8c-0.4-0.5-0.7-1.1-0.7-1.9
			c0-1.5,1-2.5,3-2.5h2.3v-0.6c0-1.1-0.5-1.6-1.9-1.6c-0.9,0-1.4,0.2-1.9,0.9l-1.1-1.1c0.8-1,1.6-1.3,3.1-1.3c2.4,0,3.6,1,3.6,3v5.8
			H310z M309.9,123h-2c-1.1,0-1.6,0.4-1.6,1.3c0,0.8,0.5,1.2,1.7,1.2c0.6,0,1.1-0.1,1.6-0.5c0.3-0.3,0.4-0.7,0.4-1.3V123z"/>
		<path class="st11" d="M316.6,126.9c-1.6,0-2.4-1.2-2.4-2.4v-5h-1v-1.3h1v-2.5h1.8v2.5h1.7v1.3H316v4.9c0,0.6,0.3,1,1,1h0.7v1.5
			H316.6z"/>
		<path class="st11" d="M319.5,116.4v-1.9h1.9v1.9H319.5z M319.6,126.9v-8.7h1.8v8.7H319.6z"/>
		<path class="st11" d="M329.1,126.9v-5.3c0-1.4-0.8-1.9-1.8-1.9c-1,0-1.8,0.6-1.8,1.9v5.3h-1.8v-8.7h1.7v0.9c0.6-0.7,1.4-1,2.3-1
			c0.9,0,1.6,0.3,2.1,0.8c0.7,0.7,0.9,1.5,0.9,2.5v5.6H329.1z"/>
		<path class="st11" d="M336.1,130.5c-1.3,0-2.2-0.3-3.1-1.2l1.1-1.1c0.5,0.5,1,0.8,1.9,0.8c1.5,0,2-1,2-2.2v-1.1
			c-0.6,0.8-1.4,1-2.3,1c-0.9,0-1.6-0.3-2.1-0.8c-0.8-0.8-1-2.1-1-3.5c0-1.5,0.1-2.7,1-3.5c0.5-0.5,1.2-0.8,2.1-0.8
			c0.9,0,1.6,0.2,2.3,1v-0.9h1.7v8.7C339.9,129,338.4,130.5,336.1,130.5z M336.3,119.6c-1.6,0-1.8,1.4-1.8,2.7
			c0,1.4,0.2,2.7,1.8,2.7c1.6,0,1.8-1.4,1.8-2.7C338.1,121,337.9,119.6,336.3,119.6z"/>
		<path class="st11" d="M352.2,126.2c-0.5,0.5-1.2,0.8-2.1,0.8c-0.9,0-1.6-0.2-2.3-1v4.4h-1.8v-12.2h1.7v0.9c0.7-0.8,1.4-1,2.3-1
			c0.9,0,1.6,0.3,2.1,0.8c0.8,0.9,1,2.2,1,3.7C353.2,123.9,353.1,125.3,352.2,126.2z M349.6,119.6c-1.6,0-1.8,1.3-1.8,2.9
			s0.2,2.9,1.8,2.9c1.6,0,1.8-1.4,1.8-2.9S351.2,119.6,349.6,119.6z"/>
		<path class="st11" d="M361.1,125.9c-0.6,0.6-1.4,1-2.6,1c-1.2,0-2-0.4-2.6-1c-0.8-0.9-1-2-1-3.4c0-1.5,0.2-2.6,1-3.4
			c0.6-0.6,1.4-1,2.6-1c1.2,0,2,0.4,2.6,1c0.8,0.9,1,2,1,3.4C362.1,124,361.9,125.1,361.1,125.9z M359.7,120.1
			c-0.3-0.3-0.8-0.5-1.3-0.5c-0.5,0-0.9,0.2-1.3,0.5c-0.5,0.5-0.6,1.4-0.6,2.4s0.1,1.9,0.6,2.4c0.3,0.3,0.8,0.5,1.3,0.5
			c0.5,0,1-0.2,1.3-0.5c0.5-0.5,0.6-1.4,0.6-2.4S360.3,120.7,359.7,120.1z"/>
		<path class="st11" d="M366.9,127c-1.4,0-2.6-0.2-3.7-1.3l1.2-1.2c0.7,0.7,1.6,0.9,2.5,0.9c1.1,0,1.9-0.4,1.9-1.2
			c0-0.6-0.3-0.9-1.2-1l-1.4-0.1c-1.7-0.2-2.6-0.9-2.6-2.4c0-1.7,1.5-2.7,3.3-2.7c1.3,0,2.4,0.3,3.2,1l-1.1,1.1
			c-0.5-0.5-1.3-0.6-2.1-0.6c-1.1,0-1.6,0.4-1.6,1.1c0,0.6,0.3,0.9,1.2,1l1.2,0.1c1.8,0.2,2.8,0.9,2.8,2.5
			C370.6,126,369,127,366.9,127z"/>
		<path class="st11" d="M372.3,116.4v-1.9h1.9v1.9H372.3z M372.4,126.9v-8.7h1.8v8.7H372.4z"/>
		<path class="st11" d="M379.1,126.9c-1.6,0-2.4-1.2-2.4-2.4v-5h-1v-1.3h1v-2.5h1.8v2.5h1.7v1.3h-1.7v4.9c0,0.6,0.3,1,1,1h0.7v1.5
			H379.1z"/>
		<path class="st11" d="M382,116.4v-1.9h1.9v1.9H382z M382.1,126.9v-8.7h1.8v8.7H382.1z"/>
		<path class="st11" d="M392.1,125.9c-0.6,0.6-1.4,1-2.6,1c-1.2,0-2-0.4-2.6-1c-0.8-0.9-1-2-1-3.4c0-1.5,0.2-2.6,1-3.4
			c0.6-0.6,1.4-1,2.6-1c1.2,0,2,0.4,2.6,1c0.8,0.9,1,2,1,3.4C393.1,124,392.9,125.1,392.1,125.9z M390.8,120.1
			c-0.3-0.3-0.8-0.5-1.3-0.5c-0.5,0-0.9,0.2-1.3,0.5c-0.5,0.5-0.6,1.4-0.6,2.4s0.1,1.9,0.6,2.4c0.3,0.3,0.8,0.5,1.3,0.5
			c0.5,0,1-0.2,1.3-0.5c0.5-0.5,0.6-1.4,0.6-2.4S391.3,120.7,390.8,120.1z"/>
		<path class="st11" d="M400.5,126.9v-5.3c0-1.4-0.8-1.9-1.8-1.9c-1,0-1.8,0.6-1.8,1.9v5.3h-1.8v-8.7h1.7v0.9c0.6-0.7,1.4-1,2.3-1
			c0.9,0,1.6,0.3,2.1,0.8c0.7,0.7,0.9,1.5,0.9,2.5v5.6H400.5z"/>
	</g>
</g>
<g>
	<rect x="233.5" y="221.4" class="st10" width="117.4" height="25.3"/>
	<g>
		<path class="st11" d="M248.1,238.8l-2.6-5.2h-2.3v5.2h-1.9v-12.2h4.7c2.3,0,3.8,1.5,3.8,3.6c0,1.8-1.1,2.9-2.4,3.2l2.8,5.4H248.1z
			 M246,228.2h-2.8v3.8h2.8c1.2,0,2.1-0.7,2.1-1.9C248,229,247.2,228.2,246,228.2z"/>
		<path class="st11" d="M252.8,235c0,1.5,0.8,2.4,2.2,2.4c1,0,1.5-0.3,2.1-0.9l1.1,1.1c-0.9,0.9-1.7,1.4-3.3,1.4
			c-2.2,0-3.9-1.2-3.9-4.5c0-2.8,1.5-4.5,3.7-4.5c2.3,0,3.7,1.7,3.7,4.2v0.7H252.8z M256.5,232.6c-0.3-0.7-0.9-1.1-1.7-1.1
			c-0.8,0-1.4,0.4-1.7,1.1c-0.2,0.4-0.2,0.7-0.2,1.2h3.9C256.7,233.2,256.7,232.9,256.5,232.6z"/>
		<path class="st11" d="M263.3,238.9c-1.4,0-2.6-0.2-3.7-1.3l1.2-1.2c0.7,0.7,1.6,0.9,2.5,0.9c1.1,0,1.9-0.4,1.9-1.2
			c0-0.6-0.3-0.9-1.2-1l-1.4-0.1c-1.6-0.2-2.6-0.9-2.6-2.4c0-1.7,1.5-2.7,3.3-2.7c1.3,0,2.4,0.3,3.2,1l-1.1,1.1
			c-0.5-0.5-1.3-0.6-2.1-0.6c-1.1,0-1.6,0.4-1.6,1.1c0,0.6,0.3,0.9,1.2,1l1.2,0.1c1.8,0.2,2.8,0.9,2.8,2.5
			C266.9,238,265.4,238.9,263.3,238.9z"/>
		<path class="st11" d="M270,235c0,1.5,0.8,2.4,2.2,2.4c1,0,1.5-0.3,2.1-0.9l1.1,1.1c-0.9,0.9-1.7,1.4-3.3,1.4
			c-2.2,0-3.9-1.2-3.9-4.5c0-2.8,1.5-4.5,3.7-4.5c2.3,0,3.7,1.7,3.7,4.2v0.7H270z M273.7,232.6c-0.3-0.7-0.9-1.1-1.7-1.1
			c-0.8,0-1.4,0.4-1.7,1.1c-0.2,0.4-0.2,0.7-0.2,1.2h3.9C273.9,233.2,273.9,232.9,273.7,232.6z"/>
		<path class="st11" d="M280.2,238.8c-1.6,0-2.4-1.2-2.4-2.4v-5h-1v-1.3h1v-2.5h1.8v2.5h1.7v1.3h-1.7v4.9c0,0.6,0.3,1,1,1h0.7v1.5
			H280.2z"/>
		<path class="st11" d="M293.1,238.1c-0.5,0.5-1.2,0.8-2.1,0.8c-0.9,0-1.6-0.2-2.3-1v4.4h-1.8v-12.2h1.7v0.9c0.7-0.8,1.4-1,2.3-1
			c0.9,0,1.6,0.3,2.1,0.8c0.8,0.9,1,2.2,1,3.7C294.1,235.9,293.9,237.3,293.1,238.1z M290.5,231.6c-1.6,0-1.8,1.3-1.8,2.9
			c0,1.5,0.2,2.9,1.8,2.9c1.6,0,1.8-1.4,1.8-2.9C292.3,232.9,292.1,231.6,290.5,231.6z"/>
		<path class="st11" d="M301.9,237.9c-0.6,0.6-1.4,1-2.6,1c-1.2,0-2-0.4-2.6-1c-0.8-0.9-1-2-1-3.4c0-1.5,0.2-2.6,1-3.4
			c0.6-0.6,1.4-1,2.6-1c1.2,0,2,0.4,2.6,1c0.8,0.9,1,2,1,3.4C303,235.9,302.8,237,301.9,237.9z M300.6,232.1
			c-0.3-0.3-0.8-0.5-1.3-0.5c-0.5,0-0.9,0.2-1.3,0.5c-0.5,0.5-0.6,1.4-0.6,2.4s0.1,1.9,0.6,2.4c0.3,0.3,0.8,0.5,1.3,0.5
			c0.5,0,1-0.2,1.3-0.5c0.5-0.5,0.6-1.4,0.6-2.4S301.1,232.6,300.6,232.1z"/>
		<path class="st11" d="M307.8,238.9c-1.4,0-2.6-0.2-3.7-1.3l1.2-1.2c0.7,0.7,1.6,0.9,2.5,0.9c1.1,0,1.9-0.4,1.9-1.2
			c0-0.6-0.3-0.9-1.2-1l-1.4-0.1c-1.6-0.2-2.6-0.9-2.6-2.4c0-1.7,1.5-2.7,3.3-2.7c1.3,0,2.4,0.3,3.2,1l-1.1,1.1
			c-0.5-0.5-1.3-0.6-2.1-0.6c-1.1,0-1.6,0.4-1.6,1.1c0,0.6,0.3,0.9,1.2,1l1.2,0.1c1.8,0.2,2.7,0.9,2.7,2.5
			C311.4,238,309.9,238.9,307.8,238.9z"/>
		<path class="st11" d="M313.2,228.4v-1.9h1.9v1.9H313.2z M313.2,238.8v-8.7h1.8v8.7H313.2z"/>
		<path class="st11" d="M320,238.8c-1.6,0-2.4-1.2-2.4-2.4v-5h-1v-1.3h1v-2.5h1.8v2.5h1.7v1.3h-1.7v4.9c0,0.6,0.3,1,1,1h0.7v1.5H320
			z"/>
		<path class="st11" d="M322.9,228.4v-1.9h1.9v1.9H322.9z M323,238.8v-8.7h1.8v8.7H323z"/>
		<path class="st11" d="M333,237.9c-0.6,0.6-1.4,1-2.6,1c-1.2,0-2-0.4-2.6-1c-0.8-0.9-1-2-1-3.4c0-1.5,0.2-2.6,1-3.4
			c0.6-0.6,1.4-1,2.6-1c1.2,0,2,0.4,2.6,1c0.8,0.9,1,2,1,3.4C334,235.9,333.8,237,333,237.9z M331.7,232.1c-0.3-0.3-0.8-0.5-1.3-0.5
			s-0.9,0.2-1.3,0.5c-0.5,0.5-0.6,1.4-0.6,2.4s0.1,1.9,0.6,2.4c0.3,0.3,0.8,0.5,1.3,0.5s1-0.2,1.3-0.5c0.5-0.5,0.6-1.4,0.6-2.4
			S332.2,232.6,331.7,232.1z"/>
		<path class="st11" d="M341.4,238.8v-5.3c0-1.4-0.8-1.9-1.8-1.9c-1,0-1.8,0.6-1.8,1.9v5.3H336v-8.7h1.7v0.9c0.6-0.7,1.4-1,2.3-1
			c0.9,0,1.6,0.3,2.1,0.8c0.7,0.7,0.9,1.5,0.9,2.5v5.6H341.4z"/>
	</g>
</g>
<g>
	<rect x="78.7" y="109.4" class="st10" width="124" height="25.3"/>
	<g>
		<path class="st11" d="M91.5,116.3v10.6h-1.9v-10.6h-3.4v-1.7h8.6v1.7H91.5z"/>
		<path class="st11" d="M99.7,126.9v-0.8c-0.6,0.6-1.2,0.9-2.3,0.9c-1.1,0-1.8-0.3-2.3-0.8c-0.4-0.5-0.7-1.1-0.7-1.9
			c0-1.5,1-2.5,3-2.5h2.3v-0.6c0-1.1-0.5-1.6-1.9-1.6c-0.9,0-1.4,0.2-1.9,0.9l-1.1-1.1c0.8-1,1.6-1.3,3.1-1.3c2.4,0,3.6,1,3.6,3v5.8
			H99.7z M99.7,123h-2c-1.1,0-1.6,0.4-1.6,1.3c0,0.8,0.5,1.2,1.7,1.2c0.6,0,1.1-0.1,1.6-0.5c0.3-0.3,0.4-0.7,0.4-1.3V123z"/>
		<path class="st11" d="M107.2,127c-2,0-3.9-1.2-3.9-4.5c0-3.3,1.9-4.5,3.9-4.5c1.2,0,2,0.3,2.9,1.2l-1.2,1.2
			c-0.5-0.6-1-0.8-1.7-0.8c-0.7,0-1.2,0.3-1.6,0.8c-0.4,0.5-0.5,1.1-0.5,2.1c0,1,0.1,1.7,0.5,2.1c0.4,0.5,0.9,0.8,1.6,0.8
			c0.7,0,1.1-0.2,1.7-0.8l1.2,1.2C109.3,126.6,108.4,127,107.2,127z"/>
		<path class="st11" d="M114.4,126.9c-1.6,0-2.4-1.2-2.4-2.4v-5h-1v-1.3h1v-2.5h1.8v2.5h1.7v1.3h-1.7v4.9c0,0.6,0.3,1,1,1h0.7v1.5
			H114.4z"/>
		<path class="st11" d="M117.3,116.5v-1.9h1.9v1.9H117.3z M117.3,126.9v-8.7h1.8v8.7H117.3z"/>
		<path class="st11" d="M123.8,126.9c-1.7,0-2.4-1.1-2.4-2.4v-9.8h1.8v9.7c0,0.7,0.2,1,0.9,1h0.8v1.5H123.8z"/>
		<path class="st11" d="M127.6,123c0,1.5,0.8,2.4,2.2,2.4c1,0,1.5-0.3,2.1-0.9l1.1,1.1c-0.9,0.9-1.7,1.4-3.3,1.4
			c-2.2,0-3.9-1.2-3.9-4.5c0-2.8,1.5-4.5,3.7-4.5c2.3,0,3.7,1.7,3.7,4.2v0.7H127.6z M131.3,120.6c-0.3-0.7-0.9-1.1-1.7-1.1
			c-0.8,0-1.4,0.4-1.7,1.1c-0.2,0.4-0.2,0.7-0.2,1.2h3.9C131.5,121.3,131.5,121,131.3,120.6z"/>
		<path class="st11" d="M145.2,126.2c-0.5,0.5-1.2,0.8-2.1,0.8c-0.9,0-1.7-0.2-2.3-1v4.4H139v-12.2h1.7v0.9c0.7-0.8,1.4-1,2.3-1
			c0.9,0,1.7,0.3,2.1,0.8c0.8,0.9,1,2.2,1,3.7C146.2,124,146,125.4,145.2,126.2z M142.6,119.6c-1.6,0-1.8,1.3-1.8,2.9
			c0,1.5,0.2,2.9,1.8,2.9c1.6,0,1.8-1.4,1.8-2.9C144.4,121,144.2,119.6,142.6,119.6z"/>
		<path class="st11" d="M154,126c-0.6,0.6-1.4,1-2.6,1c-1.2,0-2-0.4-2.6-1c-0.8-0.9-1-2-1-3.4c0-1.5,0.2-2.6,1-3.4
			c0.6-0.6,1.4-1,2.6-1c1.2,0,2,0.4,2.6,1c0.8,0.9,1,2,1,3.4C155.1,124,154.9,125.1,154,126z M152.7,120.1c-0.3-0.3-0.8-0.5-1.3-0.5
			s-0.9,0.2-1.3,0.5c-0.5,0.5-0.6,1.4-0.6,2.4c0,0.9,0.1,1.9,0.6,2.4c0.3,0.3,0.8,0.5,1.3,0.5s1-0.2,1.3-0.5
			c0.5-0.5,0.6-1.4,0.6-2.4C153.3,121.6,153.2,120.7,152.7,120.1z"/>
		<path class="st11" d="M159.9,127c-1.4,0-2.6-0.2-3.7-1.3l1.2-1.2c0.7,0.7,1.6,0.9,2.5,0.9c1.1,0,1.9-0.4,1.9-1.2
			c0-0.6-0.3-0.9-1.2-1l-1.4-0.1c-1.6-0.2-2.6-0.9-2.6-2.4c0-1.7,1.5-2.7,3.3-2.7c1.3,0,2.4,0.3,3.2,1l-1.1,1.1
			c-0.5-0.5-1.3-0.6-2.1-0.6c-1.1,0-1.6,0.4-1.6,1.1c0,0.6,0.3,0.9,1.2,1l1.2,0.1c1.8,0.2,2.8,0.9,2.8,2.5
			C163.5,126.1,162,127,159.9,127z"/>
		<path class="st11" d="M165.3,116.5v-1.9h1.9v1.9H165.3z M165.3,126.9v-8.7h1.8v8.7H165.3z"/>
		<path class="st11" d="M172.1,126.9c-1.6,0-2.4-1.2-2.4-2.4v-5h-1v-1.3h1v-2.5h1.8v2.5h1.7v1.3h-1.7v4.9c0,0.6,0.3,1,1,1h0.7v1.5
			H172.1z"/>
		<path class="st11" d="M175,116.5v-1.9h1.9v1.9H175z M175.1,126.9v-8.7h1.8v8.7H175.1z"/>
		<path class="st11" d="M185.1,126c-0.6,0.6-1.4,1-2.6,1c-1.2,0-2-0.4-2.6-1c-0.8-0.9-1-2-1-3.4c0-1.5,0.2-2.6,1-3.4
			c0.6-0.6,1.4-1,2.6-1c1.2,0,2,0.4,2.6,1c0.8,0.9,1,2,1,3.4C186.1,124,185.9,125.1,185.1,126z M183.7,120.1
			c-0.3-0.3-0.8-0.5-1.3-0.5c-0.5,0-0.9,0.2-1.3,0.5c-0.5,0.5-0.6,1.4-0.6,2.4c0,0.9,0.1,1.9,0.6,2.4c0.3,0.3,0.8,0.5,1.3,0.5
			c0.5,0,1-0.2,1.3-0.5c0.5-0.5,0.6-1.4,0.6-2.4C184.4,121.6,184.3,120.7,183.7,120.1z"/>
		<path class="st11" d="M193.4,126.9v-5.3c0-1.4-0.8-1.9-1.8-1.9c-1,0-1.8,0.6-1.8,1.9v5.3h-1.8v-8.7h1.7v0.9c0.6-0.7,1.4-1,2.3-1
			c0.9,0,1.6,0.3,2.1,0.8c0.7,0.7,0.9,1.5,0.9,2.5v5.6H193.4z"/>
	</g>
</g>
<g>
	<g>
		<g>
			<line class="st12" x1="10.4" y1="225.2" x2="10.4" y2="146.6"/>
			<g>
				<polygon class="st9" points="17.4,152.3 16.2,153.5 10.4,147.2 4.6,153.5 3.3,152.3 10.4,144.7 				"/>
			</g>
		</g>
	</g>
	<g>
		<path class="st7" d="M7.9,136h7.4v1.8H7.9v1H6.6v-1H5.4c-1.3,0-2.4-0.8-2.4-2.4v-1.1h1.5v0.8c0,0.7,0.4,1,1,1h1.1v-1.7h1.3V136z"
			/>
		<path class="st7" d="M14.3,126.8c0.6,0.6,1,1.4,1,2.6c0,1.2-0.4,2-1,2.6c-0.9,0.8-2,1-3.4,1c-1.5,0-2.6-0.2-3.4-1
			c-0.6-0.6-1-1.4-1-2.6c0-1.2,0.4-2,1-2.6c0.9-0.8,2-1,3.4-1C12.4,125.8,13.5,126,14.3,126.8z M8.5,128.1c-0.3,0.3-0.5,0.8-0.5,1.3
			c0,0.5,0.2,0.9,0.5,1.3c0.5,0.5,1.4,0.6,2.4,0.6c0.9,0,1.9-0.1,2.4-0.6c0.3-0.3,0.5-0.8,0.5-1.3c0-0.5-0.2-1-0.5-1.3
			c-0.5-0.5-1.4-0.6-2.4-0.6C10,127.5,9,127.6,8.5,128.1z"/>
		<path class="st7" d="M8.6,118.6C8.2,119,8,119.3,8,119.9c0,0.9,0.8,1.7,2,1.7h5.3v1.8H6.6v-1.7h0.9c-0.6-0.4-1.1-1.3-1.1-2.3
			c0-0.8,0.2-1.5,0.8-2.1L8.6,118.6z"/>
		<path class="st7" d="M15.4,112.9c0,2-1.2,3.9-4.5,3.9s-4.5-1.9-4.5-3.9c0-1.2,0.3-2,1.2-2.9l1.2,1.2c-0.6,0.5-0.8,1-0.8,1.7
			c0,0.7,0.3,1.2,0.8,1.6c0.5,0.4,1.1,0.5,2.1,0.5s1.7-0.1,2.1-0.5c0.5-0.4,0.8-0.9,0.8-1.6c0-0.7-0.2-1.1-0.8-1.7l1.2-1.2
			C15,110.9,15.4,111.7,15.4,112.9z"/>
		<path class="st7" d="M11.4,107c1.5,0,2.4-0.8,2.4-2.2c0-1-0.3-1.5-0.9-2.1l1.1-1.1c0.9,0.9,1.4,1.7,1.4,3.3c0,2.2-1.2,3.9-4.5,3.9
			c-2.8,0-4.5-1.5-4.5-3.7c0-2.3,1.7-3.7,4.2-3.7h0.7V107z M9,103.3c-0.7,0.3-1.1,0.9-1.1,1.7c0,0.8,0.4,1.4,1.1,1.7
			c0.4,0.2,0.7,0.2,1.2,0.2v-3.9C9.7,103.1,9.4,103.1,9,103.3z"/>
		<path class="st7" d="M16.9,93c-0.7,0.7-1.1,1.1-1.6,1.4c-0.6,0.4-1.3,0.4-2,0.4H5c-0.7,0-1.4-0.1-2-0.4c-0.6-0.3-0.9-0.7-1.6-1.4
			l1.2-1.2c0.4,0.4,0.7,0.7,1.1,1C4.1,93,4.5,93,5.1,93h8c0.6,0,1.1-0.1,1.4-0.3c0.5-0.3,0.7-0.6,1.1-1L16.9,93z"/>
		<path class="st7" d="M15.4,86c0,2-1.2,3.9-4.5,3.9S6.5,88,6.5,86c0-1.2,0.3-2,1.2-2.9l1.2,1.2C8.2,84.9,8,85.3,8,86
			c0,0.7,0.3,1.2,0.8,1.6c0.5,0.4,1.1,0.5,2.1,0.5s1.7-0.1,2.1-0.5c0.5-0.4,0.8-0.9,0.8-1.6c0-0.7-0.2-1.1-0.8-1.7l1.2-1.2
			C15,84,15.4,84.8,15.4,86z"/>
		<path class="st7" d="M15.3,73.4L6.7,79h8.6v1.9H3v-1.7l8.6-5.7H3v-1.9h12.2V73.4z"/>
		<path class="st7" d="M15.3,66.5c0.6,0.3,1,0.8,1.6,1.4l-1.2,1.2c-0.4-0.4-0.7-0.7-1.1-0.9c-0.3-0.2-0.8-0.3-1.4-0.3h-8
			c-0.6,0-1.1,0.1-1.4,0.3c-0.5,0.3-0.7,0.5-1.1,0.9l-1.2-1.2c0.6-0.6,1.1-1.1,1.6-1.4c0.6-0.4,1.3-0.4,2-0.4h8.2
			C14,66.1,14.6,66.2,15.3,66.5z"/>
	</g>
</g>
<circle class="st13" cx="211.3" cy="220" r="3.3"/>
<g id="LINE_485_">
	<line class="st0" x1="70.2" y1="208.9" x2="70.2" y2="205.2"/>
</g>
<g id="LINE_486_">
	<line class="st0" x1="424.3" y1="71.5" x2="424.3" y2="127.4"/>
</g>
<g id="LINE_487_">
	<line class="st0" x1="70.2" y1="281.3" x2="70.2" y2="208.4"/>
</g>
<g id="LINE_488_">
	<line class="st0" x1="424.3" y1="143.3" x2="424.3" y2="71.7"/>
</g>
<g id="ARC_374_">
	<path class="st14" d="M420.4,145.5c2.2-0.3,3.9-2.2,3.8-4.4"/>
</g>
<g id="ARC_375_">
	<path class="st15" d="M420.4,147.7c3.5-0.9,3.9-4.4,3.8-6.6"/>
</g>
<g id="LINE_489_">
	<line class="st14" x1="81.7" y1="192" x2="186.3" y2="177.7"/>
</g>
<g id="LINE_490_">
	<line class="st14" x1="263.2" y1="167.1" x2="420.4" y2="145.5"/>
</g>
<g id="LINE_491_">
	<line class="st15" x1="231.4" y1="173.7" x2="420.4" y2="147.7"/>
</g>
<g id="LINE_492_">
	<line class="st15" x1="118.8" y1="194.1" x2="145.8" y2="220.6"/>
</g>
<g id="ARC_376_">
	<path class="st15" d="M145.8,220.6c9.1,9.2,17.2,13.4,31,13.4"/>
</g>
<g id="ARC_377_">
	<path class="st15" d="M118.8,194.1c-3.9-4-10.8-4.8-15.4-1.6"/>
</g>
<g id="ARC_378_">
	<path class="st15" d="M103.4,192.4c-8.3,6.2-20.8,19.9-26.2,28.7"/>
</g>
<g id="ARC_379_">
	<path class="st15" d="M77.2,221.1c-3.5,6.2-7,16.5-7,23.5"/>
</g>
<g id="ARC_380_">
	<path class="st14" d="M81.7,192c-6.5,0.8-11.6,6.6-11.5,13.2"/>
</g>
<g id="ARC_381_">
	<path class="st14" d="M232.1,147.2c-4.7-3.8-11.6-3.2-15.5,1.5"/>
</g>
<g id="LINE_493_">
	<line class="st14" x1="216.6" y1="148.7" x2="197.5" y2="171.5"/>
</g>
<g id="ARC_382_">
	<path class="st14" d="M186.3,177.7c4.6-1,8-2.5,11.1-6.2"/>
</g>
<g id="LINE_494_">
	<line class="st14" x1="232.1" y1="147.2" x2="253" y2="164.2"/>
</g>
<g id="ARC_383_">
	<path class="st14" d="M253,164.2c4.1,3,7.3,3.6,10.6,2.8"/>
</g>
<g id="LINE_495_">
	<line class="st15" x1="220.3" y1="183.6" x2="211.5" y2="219.1"/>
</g>
<g id="ARC_384_">
	<path class="st15" d="M194.3,234c7.8,0,14.9-7.2,17.2-14.9"/>
</g>
<g id="ARC_385_">
	<path class="st15" d="M231.4,173.7c-5.6,0.9-9.6,3.7-11.1,9.9"/>
</g>
<g id="LINE_496_">
	<line class="st15" x1="176.8" y1="234" x2="194.3" y2="234"/>
</g>
<g id="LINE_5_">
	<line class="st16" x1="233.5" y1="234" x2="211.3" y2="220"/>
</g>
<circle class="st17" cx="224.3" cy="145.4" r="3.3"/>
<g id="LINE_1_">
	<line class="st16" x1="224.3" y1="145.4" x2="202.7" y2="122.1"/>
</g>
<circle class="st17" cx="265.4" cy="166.8" r="3.3"/>
<g id="LINE_11_">
	<line class="st16" x1="265.4" y1="166.8" x2="291.4" y2="134.7"/>
</g>
</svg>
