<svg xmlns="http://www.w3.org/2000/svg" viewBox="0 0 32 32"><defs><style>.cls-1{fill:#989899;}</style></defs><title>icon</title><g id="Layer_2" data-name="Layer 2"><path class="cls-1" d="M16,30A14,14,0,1,1,30,16,14,14,0,0,1,16,30ZM16,3.06A12.94,12.94,0,1,0,28.94,16,12.95,12.95,0,0,0,16,3.06Z"/><path class="cls-1" d="M16,30A14,14,0,1,1,30,16,14,14,0,0,1,16,30ZM16,3.06A12.94,12.94,0,1,0,28.94,16,12.95,12.95,0,0,0,16,3.06Z"/><path class="cls-1" d="M27.66,23.27H7.44a1,1,0,0,1-1-1V9.72a1,1,0,0,1,1-1H27.67a.55.55,0,0,1,.46.27,14,14,0,0,1,0,14A.54.54,0,0,1,27.66,23.27ZM7.52,22.22H27.35a13,13,0,0,0,0-12.42H7.52Z"/><path class="cls-1" d="M28.92,20.47a.64.64,0,0,1-.63.64H19a.64.64,0,0,1-.63-.64v-.86A.64.64,0,0,1,19,19h9.33a.64.64,0,0,1,.63.64Z"/><rect class="cls-1" x="11.6" y="18.97" width="2.13" height="2.14" rx="0.64"/><path class="cls-1" d="M17,19h-.85L16,19l-.09,0h-.86a.64.64,0,0,0-.64.64v.86a.64.64,0,0,0,.64.64h.86l.09,0,.1,0H17a.64.64,0,0,0,.64-.64v-.86A.64.64,0,0,0,17,19Z"/><rect class="cls-1" x="8.76" y="18.97" width="2.14" height="2.14" rx="0.64"/><rect class="cls-1" x="19.7" y="10.87" width="2.14" height="2.14" rx="0.64"/><rect class="cls-1" x="16.97" y="10.87" width="2.13" height="2.14" rx="0.64"/><rect class="cls-1" x="25.17" y="10.87" width="2.13" height="2.14" rx="0.64"/><rect class="cls-1" x="22.44" y="10.87" width="2.14" height="2.14" rx="0.64"/><rect class="cls-1" x="14.23" y="10.87" width="2.14" height="2.14" rx="0.64"/><rect class="cls-1" x="11.49" y="10.87" width="2.13" height="2.14" rx="0.64"/><rect class="cls-1" x="8.76" y="10.87" width="2.14" height="2.14" rx="0.64"/><rect class="cls-1" x="20.22" y="13.57" width="2.13" height="2.13" rx="0.64"/><rect class="cls-1" x="17.48" y="13.57" width="2.14" height="2.13" rx="0.64"/><rect class="cls-1" x="25.69" y="13.57" width="2.13" height="2.13" rx="0.64"/><rect class="cls-1" x="22.95" y="13.57" width="2.13" height="2.13" rx="0.64"/><rect class="cls-1" x="14.75" y="13.57" width="2.13" height="2.13" rx="0.64"/><rect class="cls-1" x="12.01" y="13.57" width="2.13" height="2.13" rx="0.64"/><rect class="cls-1" x="8.76" y="13.57" width="2.65" height="2.13" rx="0.64"/><rect class="cls-1" x="20.68" y="16.27" width="2.13" height="2.13" rx="0.64"/><rect class="cls-1" x="17.92" y="16.27" width="2.14" height="2.13" rx="0.64"/><rect class="cls-1" x="26.21" y="16.27" width="2.14" height="2.13" rx="0.64"/><rect class="cls-1" x="23.45" y="16.27" width="2.13" height="2.13" rx="0.64"/><rect class="cls-1" x="15.16" y="16.27" width="2.14" height="2.13" rx="0.64"/><rect class="cls-1" x="8.75" y="16.27" width="5.79" height="2.13" rx="0.64"/></g></svg>