<svg xmlns="http://www.w3.org/2000/svg" viewBox="0 0 32 32"><defs><style>.cls-1{fill:#999;}</style></defs><title>icon</title><g id="Layer_2" data-name="Layer 2"><path class="cls-1" d="M16,30A13.92,13.92,0,1,1,29.92,16.08,13.94,13.94,0,0,1,16,30ZM16,3.21A12.87,12.87,0,1,0,28.87,16.08,12.89,12.89,0,0,0,16,3.21Z"/><path class="cls-1" d="M17,17a.53.53,0,0,1-.5-.37l-.82,0c-.05,0-.06,0-.06,0a.52.52,0,0,1-.51.42.53.53,0,0,1-.53-.53,1,1,0,0,1,1.1-.92h.75a1,1,0,0,1,1.1.92A.53.53,0,0,1,17,17Z"/><path class="cls-1" d="M16,24.43a.53.53,0,0,1-.53-.53V20.74a.53.53,0,1,1,1,0V23.9A.52.52,0,0,1,16,24.43Z"/><path class="cls-1" d="M22.32,28.43a.48.48,0,0,1-.26-.07.54.54,0,0,1-.27-.44,26.75,26.75,0,0,0-.36-3.71,17.78,17.78,0,0,1,.15-6.83,13.22,13.22,0,0,0-4-2v4.66a1.08,1.08,0,0,1-1.17,1h-.86a1.08,1.08,0,0,1-1.17-1V15.39a13.09,13.09,0,0,0-4,2,17.78,17.78,0,0,1,.15,6.83,26.75,26.75,0,0,0-.36,3.71.54.54,0,0,1-.27.44.52.52,0,0,1-.51,0,14,14,0,1,1,13.14,0A.54.54,0,0,1,22.32,28.43ZM17.07,14.22h.29c.82.2,5.48,1.84,5.29,3.19a17.13,17.13,0,0,0-.18,6.63,29.75,29.75,0,0,1,.34,3A12.94,12.94,0,1,0,9.19,27c.08-1.3.22-2.17.34-3a17,17,0,0,0-.18-6.61c-.19-1.36,4.47-3,5.29-3.2h.29a.53.53,0,0,1,.53.53V20h1.08v-5.2A.53.53,0,0,1,17.07,14.22Zm-.58-.55a.52.52,0,0,1-.95-.31V3a.53.53,0,1,1,1.05,0v10.4a.5.5,0,0,1-.1.31"/></g></svg>