<?xml version="1.0" standalone="no"?>
<!DOCTYPE svg PUBLIC "-//W3C//DTD SVG 20010904//EN"
 "http://www.w3.org/TR/2001/REC-SVG-20010904/DTD/svg10.dtd">
<svg version="1.0" xmlns="http://www.w3.org/2000/svg"
 width="1280.000000pt" height="1280.000000pt" viewBox="0 0 1280.000000 1280.000000"
 preserveAspectRatio="xMidYMid meet">
<metadata>
Created by potrace 1.16, written by Peter Selinger 2001-2019
</metadata>
<g transform="translate(0.000000,1280.000000) scale(0.100000,-0.100000)"
fill="#000000" stroke="none">
<path d="M0 6400 l0 -6400 4603 1 c3848 0 4592 3 4541 14 -75 16 -152 48 -224
93 -38 23 -971 950 -2991 2970 -2751 2752 -2938 2941 -2972 3007 -53 104 -77
202 -77 315 0 116 17 188 71 300 l41 85 2937 2937 c2029 2030 2954 2947 2993
2972 69 43 143 74 223 91 50 11 -704 14 -4542 14 l-4603 1 0 -6400z"/>
<path d="M9425 12781 c92 -23 154 -51 230 -106 86 -61 148 -135 195 -230 52
-104 70 -179 70 -287 0 -118 -13 -176 -67 -288 l-45 -95 -2686 -2688 -2687
-2687 2676 -2678 c1472 -1472 2686 -2691 2698 -2709 74 -110 111 -230 111
-368 0 -301 -199 -552 -495 -626 -67 -17 -7 -18 1653 -18 l1722 -1 0 6400 0
6400 -1722 -1 c-1660 0 -1720 -1 -1653 -18z"/>
</g>
</svg>
