<?xml version="1.0" standalone="no"?>
<!DOCTYPE svg PUBLIC "-//W3C//DTD SVG 20010904//EN"
 "http://www.w3.org/TR/2001/REC-SVG-20010904/DTD/svg10.dtd">
<svg version="1.0" xmlns="http://www.w3.org/2000/svg"
 width="1280.000000pt" height="1280.000000pt" viewBox="0 0 1280.000000 1280.000000"
 preserveAspectRatio="xMidYMid meet">
<metadata>
Created by potrace 1.16, written by Peter Selinger 2001-2019
</metadata>
<g transform="translate(0.000000,1280.000000) scale(0.100000,-0.100000)"
fill="#000000" stroke="none">
<path d="M0 6400 l0 -6400 1723 1 c1673 0 1720 1 1652 18 -300 77 -495 326
-495 630 0 134 37 256 111 364 12 18 1226 1237 2698 2709 l2676 2678 -2681
2682 c-1742 1743 -2692 2701 -2713 2735 -57 92 -84 184 -89 308 -5 135 12 216
68 324 89 171 235 285 425 332 67 17 7 18 -1652 18 l-1723 1 0 -6400z"/>
<path d="M3655 12785 c86 -19 138 -40 209 -81 48 -29 676 -652 3002 -2978
2784 -2784 2943 -2945 2978 -3013 101 -198 101 -428 0 -626 -35 -68 -194 -229
-2978 -3013 -2327 -2327 -2954 -2949 -3002 -2978 -71 -41 -123 -62 -209 -81
-50 -11 671 -14 4543 -14 l4602 -1 0 6400 0 6400 -4602 -1 c-3872 0 -4593 -3
-4543 -14z"/>
</g>
</svg>
