<svg xmlns="http://www.w3.org/2000/svg" viewBox="0 0 32 32"><defs><style>.cls-1{fill:#989899;}</style></defs><title>icon</title><g id="Layer_2" data-name="Layer 2"><path class="cls-1" d="M16,2A14,14,0,1,0,30,16,14,14,0,0,0,16,2Zm0,26.94A12.94,12.94,0,1,1,28.94,16,12.95,12.95,0,0,1,16,28.94Z"/><path class="cls-1" d="M22.57,7.44H12.38c-.18,0-1.32.15-1.51.8L7.09,14.52a.53.53,0,0,0,0,.53.52.52,0,0,0,.46.27h2.81a.52.52,0,0,0,.39-.17l.94-1H20l.93,1a.52.52,0,0,0,.39.17H23a.52.52,0,0,0,.52-.53V8.43A1,1,0,0,0,22.57,7.44Zm-.06,6.83h-1l-.93-1a.52.52,0,0,0-.39-.17H11.46a.52.52,0,0,0-.39.17l-.94,1H8.48L11.82,8.7a.09.09,0,0,0,0-.06,1.71,1.71,0,0,1,.53-.15l10.13-.06Z"/><path class="cls-1" d="M19.56,17.62c.14,0,.26-.21.26-.47s-.12-.47-.26-.47l-.8.21v-1a.53.53,0,0,0-.53-.53H13.77a.53.53,0,0,0-.53.53v2.51l-.77.21h0c-.14,0-.26.21-.26.47h0c0,.26.12.47.26.47h0l.77.2v.53l-.77.21h0c-.14,0-.26.21-.26.47h0c0,.26.12.47.26.47h0l.77.21v.53l-.77.2h0c-.14,0-.26.22-.26.48h0c0,.26.12.47.26.47h0l.8.22a.52.52,0,0,0,.5.38l-1.3.35h0c-.14,0-.26.21-.26.47h0c0,.26.12.47.26.47h0l1.77.47-1.74.46h-.06c-.14,0-.26.21-.26.47h0c0,.26.12.47.26.47l.06,0h7l.06,0c.14,0,.26-.21.26-.47h0c0-.26-.12-.47-.26-.47H19.5l-1.74-.46,1.77-.47h0c.14,0,.26-.21.26-.47h0c0-.26-.12-.47-.26-.47h0l-1.3-.35a.52.52,0,0,0,.5-.38l.8-.22h0c.14,0,.26-.21.26-.47h0c0-.26-.12-.47-.26-.47h0l-.77-.2V21.6l.77-.21h0c.14,0,.26-.21.26-.47h0c0-.26-.12-.47-.26-.47h0l-.77-.21v-.53l.8-.21c.14,0,.26-.21.26-.47s-.12-.47-.26-.47l-.8.21v-.94ZM14.3,16.38h3.4v6.43H14.3ZM16,25.16l-1.76-.47L16,24.22l1.76.47Z"/></g></svg>