<svg xmlns="http://www.w3.org/2000/svg" xmlns:xlink="http://www.w3.org/1999/xlink" viewBox="0 0 32 32"><defs><style>.cls-1{fill:none;}.cls-2{fill:#989899;}.cls-3{clip-path:url(#clip-path);}</style><clipPath id="clip-path"><path class="cls-1" d="M19.36,7.21H5.79a13.47,13.47,0,0,0,1,18.59,13.7,13.7,0,0,1-2-2.46c1.08-4.59,3.77-7.83,6.92-7.83,4.11,0,7.44,5.52,7.44,12.32,0,.45,0,.87-.05,1.29a13.65,13.65,0,0,0,5.2-2.46,5.66,5.66,0,0,0,.7-2.71V12.79A5.58,5.58,0,0,0,19.36,7.21Z"/></clipPath></defs><title>icon</title><g id="Layer_2" data-name="Layer 2"><path class="cls-2" d="M12,23.67h-.67a1,1,0,0,1-1-.87V19.38a1,1,0,0,1,1-.87H12a.94.94,0,0,1,1,.87V22.8A.94.94,0,0,1,12,23.67Zm-.65-1.06H12V19.57h-.62Z"/><path class="cls-2" d="M11.65,19.4a.52.52,0,0,1-.53-.52V15.75a.53.53,0,0,1,1.06,0v3.13A.52.52,0,0,1,11.65,19.4Z"/><path class="cls-2" d="M16,30A14,14,0,1,1,30,16,14,14,0,0,1,16,30ZM16,3.06A12.94,12.94,0,1,0,28.94,16,12.95,12.95,0,0,0,16,3.06Z"/><g class="cls-3"><rect class="cls-1" x="24.47" y="1" width="8.98" height="8.98"/><polygon class="cls-1" points="33.45 7.48 30.95 9.98 32.96 9.98 33.45 9.49 33.45 7.48"/><polygon class="cls-1" points="24.86 1 24.47 1.4 24.47 3.41 26.87 1 24.86 1"/><polygon class="cls-1" points="33.45 4.47 27.94 9.98 29.95 9.98 33.45 6.48 33.45 4.47"/><polygon class="cls-1" points="27.88 1 24.47 4.41 24.47 6.42 29.89 1 27.88 1"/><polygon class="cls-1" points="30.89 1 24.47 7.42 24.47 9.44 32.9 1 30.89 1"/><polygon class="cls-1" points="33.45 1.46 24.92 9.98 26.93 9.98 33.45 3.47 33.45 1.46"/><polygon class="cls-1" points="29.89 1 24.47 6.42 24.47 7.42 30.89 1 29.89 1"/><polygon class="cls-1" points="26.87 1 24.47 3.41 24.47 4.41 27.88 1 26.87 1"/><polygon class="cls-1" points="24.47 1 24.47 1.4 24.86 1 24.47 1"/><polygon class="cls-1" points="33.45 1 32.9 1 24.47 9.44 24.47 9.98 24.92 9.98 33.45 1.46 33.45 1"/><polygon class="cls-1" points="33.45 3.47 26.93 9.98 27.94 9.98 33.45 4.47 33.45 3.47"/><polygon class="cls-1" points="33.45 6.48 29.95 9.98 30.95 9.98 33.45 7.48 33.45 6.48"/><rect class="cls-1" x="24.47" y="9.98" width="8.98" height="8.98"/><polygon class="cls-1" points="33.45 16.46 30.95 18.96 32.96 18.96 33.45 18.48 33.45 16.46"/><polygon class="cls-1" points="24.86 9.98 24.47 10.38 24.47 12.39 26.87 9.98 24.86 9.98"/><polygon class="cls-1" points="33.45 13.45 27.94 18.96 29.95 18.96 33.45 15.46 33.45 13.45"/><polygon class="cls-1" points="27.88 9.98 24.47 13.39 24.47 15.4 29.89 9.98 27.88 9.98"/><polygon class="cls-1" points="30.89 9.98 24.47 16.41 24.47 18.42 32.9 9.98 30.89 9.98"/><polygon class="cls-1" points="33.45 10.44 24.92 18.96 26.93 18.96 33.45 12.45 33.45 10.44"/><polygon class="cls-1" points="29.89 9.98 24.47 15.4 24.47 16.41 30.89 9.98 29.89 9.98"/><polygon class="cls-1" points="26.87 9.98 24.47 12.39 24.47 13.39 27.88 9.98 26.87 9.98"/><polygon class="cls-1" points="24.47 9.98 24.47 10.38 24.86 9.98 24.47 9.98"/><polygon class="cls-1" points="33.45 9.98 32.9 9.98 24.47 18.42 24.47 18.96 24.92 18.96 33.45 10.44 33.45 9.98"/><polygon class="cls-1" points="33.45 12.45 26.93 18.96 27.94 18.96 33.45 13.45 33.45 12.45"/><polygon class="cls-1" points="33.45 15.46 29.95 18.96 30.95 18.96 33.45 16.46 33.45 15.46"/><rect class="cls-1" x="24.47" y="18.96" width="8.98" height="8.98"/><polygon class="cls-1" points="33.45 25.45 30.95 27.95 32.96 27.95 33.45 27.46 33.45 25.45"/><polygon class="cls-1" points="24.86 18.96 24.47 19.36 24.47 21.37 26.87 18.96 24.86 18.96"/><polygon class="cls-1" points="33.45 22.43 27.94 27.95 29.95 27.95 33.45 24.44 33.45 22.43"/><polygon class="cls-1" points="27.88 18.96 24.47 22.37 24.47 24.38 29.89 18.96 27.88 18.96"/><polygon class="cls-1" points="30.89 18.96 24.47 25.39 24.47 27.4 32.9 18.96 30.89 18.96"/><polygon class="cls-1" points="33.45 19.42 24.92 27.95 26.93 27.95 33.45 21.43 33.45 19.42"/><polygon class="cls-1" points="29.89 18.96 24.47 24.38 24.47 25.39 30.89 18.96 29.89 18.96"/><polygon class="cls-1" points="26.87 18.96 24.47 21.37 24.47 22.37 27.88 18.96 26.87 18.96"/><polygon class="cls-1" points="24.47 18.96 24.47 19.36 24.86 18.96 24.47 18.96"/><polygon class="cls-1" points="33.45 18.96 32.9 18.96 24.47 27.4 24.47 27.95 24.92 27.95 33.45 19.42 33.45 18.96"/><polygon class="cls-1" points="33.45 21.43 26.93 27.95 27.94 27.95 33.45 22.43 33.45 21.43"/><polygon class="cls-1" points="33.45 24.44 29.95 27.95 30.95 27.95 33.45 25.45 33.45 24.44"/><rect class="cls-1" x="24.47" y="27.94" width="8.98" height="8.98"/><polygon class="cls-1" points="24.86 27.95 24.47 28.34 24.47 30.35 26.87 27.95 24.86 27.95"/><polygon class="cls-1" points="33.45 31.41 27.94 36.93 29.95 36.93 33.45 33.42 33.45 31.41"/><polygon class="cls-1" points="27.88 27.95 24.47 31.35 24.47 33.37 29.89 27.95 27.88 27.95"/><polygon class="cls-1" points="30.89 27.95 24.47 34.37 24.47 36.38 32.9 27.95 30.89 27.95"/><polygon class="cls-1" points="33.45 28.4 24.92 36.93 26.93 36.93 33.45 30.41 33.45 28.4"/><polygon class="cls-1" points="29.89 27.95 24.47 33.37 24.47 34.37 30.89 27.95 29.89 27.95"/><polygon class="cls-1" points="26.87 27.95 24.47 30.35 24.47 31.35 27.88 27.95 26.87 27.95"/><polygon class="cls-1" points="24.47 27.95 24.47 28.34 24.86 27.95 24.47 27.95"/><polygon class="cls-1" points="33.45 27.95 32.9 27.95 24.47 36.38 24.47 36.93 24.92 36.93 33.45 28.4 33.45 27.95"/><polygon class="cls-1" points="33.45 30.41 26.93 36.93 27.94 36.93 33.45 31.41 33.45 30.41"/><rect class="cls-1" x="15.49" y="27.94" width="8.98" height="8.98"/><polygon class="cls-1" points="15.88 27.95 15.48 28.34 15.48 30.35 17.89 27.95 15.88 27.95"/><polygon class="cls-1" points="24.47 31.41 18.95 36.93 20.96 36.93 24.47 33.42 24.47 31.41"/><polygon class="cls-1" points="18.89 27.95 15.48 31.35 15.48 33.37 20.91 27.95 18.89 27.95"/><polygon class="cls-1" points="21.91 27.95 15.48 34.37 15.48 36.38 23.92 27.95 21.91 27.95"/><polygon class="cls-1" points="24.47 28.4 15.94 36.93 17.95 36.93 24.47 30.41 24.47 28.4"/><polygon class="cls-1" points="20.91 27.95 15.48 33.37 15.48 34.37 21.91 27.95 20.91 27.95"/><polygon class="cls-1" points="17.89 27.95 15.48 30.35 15.48 31.35 18.89 27.95 17.89 27.95"/><polygon class="cls-1" points="15.48 27.95 15.48 28.34 15.88 27.95 15.48 27.95"/><polygon class="cls-1" points="24.47 27.95 23.92 27.95 15.48 36.38 15.48 36.93 15.94 36.93 24.47 28.4 24.47 27.95"/><polygon class="cls-1" points="24.47 30.41 17.95 36.93 18.95 36.93 24.47 31.41 24.47 30.41"/><rect class="cls-1" x="6.5" y="18.96" width="8.98" height="8.98"/><polygon class="cls-1" points="15.48 25.45 12.99 27.95 15 27.95 15.48 27.46 15.48 25.45"/><polygon class="cls-1" points="6.9 18.96 6.5 19.36 6.5 21.37 8.91 18.96 6.9 18.96"/><polygon class="cls-1" points="15.48 22.43 9.97 27.95 11.98 27.95 15.48 24.44 15.48 22.43"/><polygon class="cls-1" points="9.91 18.96 6.5 22.37 6.5 24.38 11.92 18.96 9.91 18.96"/><polygon class="cls-1" points="12.93 18.96 6.5 25.39 6.5 27.4 14.94 18.96 12.93 18.96"/><polygon class="cls-1" points="15.48 19.42 6.96 27.95 8.97 27.95 15.48 21.43 15.48 19.42"/><polygon class="cls-1" points="11.92 18.96 6.5 24.38 6.5 25.39 12.93 18.96 11.92 18.96"/><polygon class="cls-1" points="8.91 18.96 6.5 21.37 6.5 22.37 9.91 18.96 8.91 18.96"/><polygon class="cls-1" points="6.5 18.96 6.5 19.36 6.9 18.96 6.5 18.96"/><polygon class="cls-1" points="15.48 18.96 14.94 18.96 6.5 27.4 6.5 27.95 6.96 27.95 15.48 19.42 15.48 18.96"/><polygon class="cls-1" points="15.48 21.43 8.97 27.95 9.97 27.95 15.48 22.43 15.48 21.43"/><polygon class="cls-1" points="15.48 24.44 11.98 27.95 12.99 27.95 15.48 25.45 15.48 24.44"/><polygon class="cls-1" points="15.48 27.46 15 27.95 15.48 27.95 15.48 27.46"/><rect class="cls-1" x="6.5" y="27.94" width="8.98" height="8.98"/><polygon class="cls-1" points="6.9 27.95 6.5 28.34 6.5 30.35 8.91 27.95 6.9 27.95"/><polygon class="cls-1" points="15.48 31.41 9.97 36.93 11.98 36.93 15.48 33.42 15.48 31.41"/><polygon class="cls-1" points="9.91 27.95 6.5 31.35 6.5 33.37 11.92 27.95 9.91 27.95"/><polygon class="cls-1" points="12.93 27.95 6.5 34.37 6.5 36.38 14.94 27.95 12.93 27.95"/><polygon class="cls-1" points="15.48 28.4 6.96 36.93 8.97 36.93 15.48 30.41 15.48 28.4"/><polygon class="cls-1" points="11.92 27.95 6.5 33.37 6.5 34.37 12.93 27.95 11.92 27.95"/><polygon class="cls-1" points="8.91 27.95 6.5 30.35 6.5 31.35 9.91 27.95 8.91 27.95"/><polygon class="cls-1" points="6.5 27.95 6.5 28.34 6.9 27.95 6.5 27.95"/><polygon class="cls-1" points="15.48 27.95 14.94 27.95 6.5 36.38 6.5 36.93 6.96 36.93 15.48 28.4 15.48 27.95"/><polygon class="cls-1" points="15.48 30.41 8.97 36.93 9.97 36.93 15.48 31.41 15.48 30.41"/><polygon class="cls-1" points="15.48 6.48 15.48 7.42 21.91 1 20.91 1 15.48 6.42 15.48 6.48"/><polygon class="cls-1" points="15.48 3.47 15.48 4.41 18.89 1 17.89 1 15.48 3.41 15.48 3.47"/><polygon class="cls-1" points="15.88 1 15.48 1 15.48 1.4 15.88 1"/><polygon class="cls-1" points="23.92 1 15.48 9.44 15.48 9.49 15.48 9.98 15.88 9.98 15.94 9.98 24.47 1.46 24.47 1 23.92 1"/><polygon class="cls-1" points="18.89 9.98 18.95 9.98 24.47 4.47 24.47 3.47 17.95 9.98 18.89 9.98"/><polygon class="cls-1" points="21.91 9.98 21.97 9.98 24.47 7.48 24.47 6.48 20.96 9.98 21.91 9.98"/><polygon class="cls-1" points="24.47 9.98 24.47 9.49 23.98 9.98 24.47 9.98"/><polygon class="cls-1" points="15.48 15.46 15.48 16.41 21.91 9.98 20.96 9.98 20.91 9.98 15.48 15.4 15.48 15.46"/><polygon class="cls-1" points="15.48 12.45 15.48 13.39 18.89 9.98 17.95 9.98 17.89 9.98 15.48 12.39 15.48 12.45"/><polygon class="cls-1" points="15.88 9.98 15.48 9.98 15.48 10.38 15.88 9.98"/><polygon class="cls-1" points="23.92 9.98 15.48 18.42 15.48 18.48 15.48 18.96 15.88 18.96 15.94 18.96 24.47 10.44 24.47 9.98 23.98 9.98 23.92 9.98"/><polygon class="cls-1" points="18.89 18.96 18.95 18.96 24.47 13.45 24.47 12.45 17.95 18.96 18.89 18.96"/><polygon class="cls-1" points="21.91 18.96 21.97 18.96 24.47 16.46 24.47 15.46 20.96 18.96 21.91 18.96"/><polygon class="cls-1" points="24.47 18.96 24.47 18.48 23.98 18.96 24.47 18.96"/><polygon class="cls-1" points="20.96 18.96 20.91 18.96 15.48 24.38 15.48 25.39 21.91 18.96 20.96 18.96"/><polygon class="cls-1" points="17.95 18.96 17.89 18.96 15.48 21.37 15.48 22.37 18.89 18.96 17.95 18.96"/><polygon class="cls-1" points="15.48 18.96 15.48 19.36 15.88 18.96 15.48 18.96"/><polygon class="cls-1" points="23.92 18.96 15.48 27.4 15.48 27.95 15.94 27.95 24.47 19.42 24.47 18.96 23.98 18.96 23.92 18.96"/><polygon class="cls-1" points="18.95 27.95 24.47 22.43 24.47 21.43 17.95 27.95 18.95 27.95"/><polygon class="cls-1" points="21.97 27.95 24.47 25.45 24.47 24.44 20.96 27.95 21.97 27.95"/><polygon class="cls-1" points="24.47 27.95 24.47 27.46 23.98 27.95 24.47 27.95"/><polygon class="cls-1" points="6.5 6.48 6.5 7.42 12.93 1 11.92 1 6.5 6.42 6.5 6.48"/><polygon class="cls-1" points="6.5 3.47 6.5 4.41 9.91 1 8.91 1 6.5 3.41 6.5 3.47"/><polygon class="cls-1" points="6.9 1 6.5 1 6.5 1.4 6.9 1"/><polygon class="cls-1" points="6.5 9.49 6.5 9.98 6.9 9.98 6.96 9.98 15.48 1.46 15.48 1.4 15.48 1 14.94 1 6.5 9.44 6.5 9.49"/><polygon class="cls-1" points="9.91 9.98 9.97 9.98 15.48 4.47 15.48 4.41 15.48 3.47 8.97 9.98 9.91 9.98"/><polygon class="cls-1" points="12.93 9.98 12.99 9.98 15.48 7.48 15.48 7.42 15.48 6.48 11.98 9.98 12.93 9.98"/><polygon class="cls-1" points="15.48 9.98 15.48 9.49 15 9.98 15.48 9.98"/><polygon class="cls-1" points="11.98 9.98 11.92 9.98 6.5 15.4 6.5 15.46 6.5 16.41 12.93 9.98 11.98 9.98"/><polygon class="cls-1" points="8.97 9.98 8.91 9.98 6.5 12.39 6.5 12.45 6.5 13.39 9.91 9.98 8.97 9.98"/><polygon class="cls-1" points="6.5 9.98 6.5 10.38 6.9 9.98 6.5 9.98"/><polygon class="cls-1" points="15.48 10.38 15.48 9.98 15 9.98 14.94 9.98 6.5 18.42 6.5 18.48 6.5 18.96 6.96 18.96 15.48 10.44 15.48 10.38"/><polygon class="cls-1" points="15.48 13.39 15.48 12.45 8.97 18.96 9.97 18.96 15.48 13.45 15.48 13.39"/><polygon class="cls-1" points="15.48 16.41 15.48 15.46 11.98 18.96 12.99 18.96 15.48 16.46 15.48 16.41"/><polygon class="cls-1" points="15 18.96 15.48 18.96 15.48 18.48 15 18.96"/><polygon class="cls-1" points="2.94 1 -2.48 6.42 -2.48 7.42 3.95 1 2.94 1"/><polygon class="cls-1" points="-0.07 1 -2.48 3.41 -2.48 4.41 0.93 1 -0.07 1"/><polygon class="cls-1" points="-2.02 9.98 6.5 1.46 6.5 1.4 6.5 1 5.96 1 -2.48 9.44 -2.48 9.98 -2.08 9.98 -2.02 9.98"/><polygon class="cls-1" points="6.5 4.41 6.5 3.47 -0.01 9.98 0.93 9.98 0.99 9.98 6.5 4.47 6.5 4.41"/><polygon class="cls-1" points="6.5 7.42 6.5 6.48 3 9.98 3.95 9.98 4.01 9.98 6.5 7.48 6.5 7.42"/><polygon class="cls-1" points="6.02 9.98 6.5 9.98 6.5 9.49 6.02 9.98"/><polygon class="cls-1" points="3 9.98 2.94 9.98 -2.48 15.4 -2.48 16.41 3.95 9.98 3 9.98"/><polygon class="cls-1" points="-0.01 9.98 -0.07 9.98 -2.48 12.39 -2.48 13.39 0.93 9.98 -0.01 9.98"/><polygon class="cls-1" points="6.5 10.38 6.5 9.98 6.02 9.98 5.96 9.98 -2.48 18.42 -2.48 18.96 -2.02 18.96 6.5 10.44 6.5 10.38"/><polygon class="cls-1" points="6.5 13.39 6.5 12.45 -0.01 18.96 0.99 18.96 6.5 13.45 6.5 13.39"/><polygon class="cls-1" points="6.5 16.41 6.5 15.46 3 18.96 4.01 18.96 6.5 16.46 6.5 16.41"/><polygon class="cls-1" points="6.02 18.96 6.5 18.96 6.5 18.48 6.02 18.96"/><rect class="cls-1" x="-2.48" y="18.96" width="8.98" height="8.98"/><polygon class="cls-1" points="6.5 25.45 4.01 27.95 6.02 27.95 6.5 27.46 6.5 25.45"/><polygon class="cls-1" points="6.5 22.43 0.99 27.95 3 27.95 6.5 24.44 6.5 22.43"/><polygon class="cls-1" points="0.93 18.96 -2.48 22.37 -2.48 24.38 2.94 18.96 0.93 18.96"/><polygon class="cls-1" points="3.95 18.96 -2.48 25.39 -2.48 27.4 5.96 18.96 3.95 18.96"/><polygon class="cls-1" points="6.5 19.42 -2.02 27.95 -0.01 27.95 6.5 21.43 6.5 19.42"/><polygon class="cls-1" points="2.94 18.96 -2.48 24.38 -2.48 25.39 3.95 18.96 2.94 18.96"/><polygon class="cls-1" points="-0.07 18.96 -2.48 21.37 -2.48 22.37 0.93 18.96 -0.07 18.96"/><polygon class="cls-1" points="6.5 18.96 5.96 18.96 -2.48 27.4 -2.48 27.95 -2.02 27.95 6.5 19.42 6.5 18.96"/><polygon class="cls-1" points="6.5 21.43 -0.01 27.95 0.99 27.95 6.5 22.43 6.5 21.43"/><polygon class="cls-1" points="6.5 24.44 3 27.95 4.01 27.95 6.5 25.45 6.5 24.44"/><polygon class="cls-1" points="6.5 27.46 6.02 27.95 6.5 27.95 6.5 27.46"/><rect class="cls-1" x="-2.48" y="27.94" width="8.98" height="8.98"/><polygon class="cls-1" points="6.5 31.41 0.99 36.93 3 36.93 6.5 33.42 6.5 31.41"/><polygon class="cls-1" points="0.93 27.95 -2.48 31.35 -2.48 33.37 2.94 27.95 0.93 27.95"/><polygon class="cls-1" points="3.95 27.95 -2.48 34.37 -2.48 36.38 5.96 27.95 3.95 27.95"/><polygon class="cls-1" points="6.5 28.4 -2.02 36.93 -0.01 36.93 6.5 30.41 6.5 28.4"/><polygon class="cls-1" points="2.94 27.95 -2.48 33.37 -2.48 34.37 3.95 27.95 2.94 27.95"/><polygon class="cls-1" points="-0.07 27.95 -2.48 30.35 -2.48 31.35 0.93 27.95 -0.07 27.95"/><polygon class="cls-1" points="6.5 27.95 5.96 27.95 -2.48 36.38 -2.48 36.93 -2.02 36.93 6.5 28.4 6.5 27.95"/><polygon class="cls-1" points="6.5 30.41 -0.01 36.93 0.99 36.93 6.5 31.41 6.5 30.41"/></g><path class="cls-2" d="M19,29.64a.54.54,0,0,1-.34-.12.53.53,0,0,1-.19-.44c0-.4,0-.82,0-1.25,0-6.5-3.1-11.79-6.91-11.79-2.74,0-5.27,2.88-6.36,7.2a13.12,13.12,0,0,0,1.84,2.18.53.53,0,0,1-.73.77,14,14,0,0,1-1-19.32.52.52,0,0,1,.4-.18H19.36a6.11,6.11,0,0,1,6.11,6.1V24a6.1,6.1,0,0,1-.77,3,.43.43,0,0,1-.14.16,13.82,13.82,0,0,1-5.4,2.56ZM11.65,15c4.39,0,8,5.77,8,12.85,0,.2,0,.4,0,.59a12.7,12.7,0,0,0,4.22-2.12A5,5,0,0,0,24.41,24V12.79a5.06,5.06,0,0,0-5.05-5H6A13,13,0,0,0,4.54,22C5.88,17.71,8.59,15,11.65,15Z"/><path class="cls-2" d="M19.32,27.54a.36.36,0,0,1-.28-.11.39.39,0,0,1,0-.56l5.62-5.63a.4.4,0,0,1,.56,0,.42.42,0,0,1,0,.57L19.6,27.43A.38.38,0,0,1,19.32,27.54Z"/><path class="cls-2" d="M18.83,25a.43.43,0,0,1-.28-.11.4.4,0,0,1,0-.57l6.11-6.1a.39.39,0,0,1,.56,0,.4.4,0,0,1,0,.56l-6.11,6.11A.43.43,0,0,1,18.83,25Z"/><path class="cls-2" d="M18.27,22.5a.39.39,0,0,1-.28-.12.4.4,0,0,1,0-.56l6.52-6.52a.4.4,0,0,1,.56.56l-6.52,6.52A.36.36,0,0,1,18.27,22.5Z"/><path class="cls-2" d="M17.82,20a.39.39,0,0,1-.28-.12.4.4,0,0,1,0-.56l7.14-7.14a.4.4,0,1,1,.56.56L18.1,19.88A.39.39,0,0,1,17.82,20Z"/><path class="cls-2" d="M16.37,18.41a.39.39,0,0,1-.28-.12.4.4,0,0,1,0-.56L24,9.85a.39.39,0,0,1,.56,0,.4.4,0,0,1,0,.56l-7.89,7.88A.39.39,0,0,1,16.37,18.41Z"/><path class="cls-2" d="M14.73,17.08a.39.39,0,0,1-.28-.12.4.4,0,0,1,0-.56l8.14-8.14a.4.4,0,0,1,.56,0,.39.39,0,0,1,0,.56L15,17A.39.39,0,0,1,14.73,17.08Z"/><path class="cls-2" d="M12.61,16.14a.43.43,0,0,1-.28-.11.4.4,0,0,1,0-.57l8.14-8.14a.4.4,0,0,1,.56,0,.42.42,0,0,1,0,.57L12.89,16A.43.43,0,0,1,12.61,16.14Z"/><path class="cls-2" d="M9.56,16.24a.38.38,0,0,1-.28-.11.4.4,0,0,1,0-.56l8.41-8.41a.4.4,0,0,1,.56.56L9.84,16.13A.36.36,0,0,1,9.56,16.24Z"/><path class="cls-2" d="M3,19.89a.39.39,0,0,1-.28-.12.39.39,0,0,1,0-.56L15,6.93a.4.4,0,0,1,.56,0,.42.42,0,0,1,0,.57L3.29,19.77A.39.39,0,0,1,3,19.89Z"/><path class="cls-2" d="M2.45,17.39a.43.43,0,0,1-.28-.11.4.4,0,0,1,0-.56l9.66-9.66a.39.39,0,0,1,.56,0,.4.4,0,0,1,0,.56L2.73,17.28A.43.43,0,0,1,2.45,17.39Z"/><path class="cls-2" d="M2.68,14.14A.38.38,0,0,1,2.4,14a.4.4,0,0,1,0-.56L8.93,6.93a.4.4,0,0,1,.56,0,.4.4,0,0,1,0,.57L3,14A.38.38,0,0,1,2.68,14.14Z"/></g></svg>