<svg xmlns="http://www.w3.org/2000/svg" viewBox="0 0 32 32">
  <defs>
    <style>
      .cls-1 {
        fill: #989899;
      }
    </style>
  </defs>
  <title>icon</title>
  <g id="Layer_2" data-name="Layer 2">
    <path class="cls-1" d="M12,23.67h-.67a1,1,0,0,1-1-.88V19.37a1,1,0,0,1,1-.87H12a.94.94,0,0,1,1,.87v3.42A1,1,0,0,1,12,23.67Zm-.65-1.07H12V19.56h-.62Z"/>
    <path class="cls-1" d="M11.65,19.4a.53.53,0,0,1-.53-.53V15.74a.53.53,0,0,1,1.06,0v3.13A.53.53,0,0,1,11.65,19.4Z"/>
    <path class="cls-1" d="M16,30A14,14,0,1,1,30,16,14,14,0,0,1,16,30ZM16,3A13,13,0,1,0,28.94,16,13,13,0,0,0,16,3Z"/>
    <path class="cls-1" d="M24.94,15.69h-6a2.05,2.05,0,0,1-2.05-2V7.2h1.06v6.44a1,1,0,0,0,1,1h6Z"/>
    <rect class="cls-1" x="24.17" y="14.44" width="1.25" height="11.88" rx="0.63"/>
    <rect class="cls-1" x="5.55" y="6.52" width="12.37" height="1.13" rx="0.56"/>
    <rect class="cls-1" x="20.57" y="5.04" width="1.13" height="11.88" rx="0.57" transform="translate(-1.74 17.61) rotate(-43.6)"/>
    <path class="cls-1" d="M19.64,29.14l-1.2-.05c.17-3.8-.53-9.17-3-11.79A4.66,4.66,0,0,0,12,15.78h0C6.42,15.78,5,22.92,5,23l-1.17-.22c0-.08,1.6-8.19,8.08-8.19h0a5.86,5.86,0,0,1,4.33,1.9C19,19.37,19.81,25.11,19.64,29.14Z"/>
  </g>
</svg>
